<svg width="17" height="16" viewBox="0 0 17 16" fill="none" xmlns="http://www.w3.org/2000/svg">
<path opacity="0.3" d="M15.4335 8.00016C15.4335 11.6768 12.4428 14.6668 8.76683 14.6668C5.09083 14.6668 2.10016 11.6768 2.10016 8.00016C2.10016 4.32416 5.09083 1.3335 8.76683 1.3335C12.4428 1.3335 15.4335 4.32416 15.4335 8.00016" stroke="black" stroke-opacity="0.4" stroke-width="1.5"/>
<path d="M11.5807 7.03865C11.5807 7.16598 11.532 7.29398 11.4347 7.39131L9.12132 9.71598C9.02732 9.80998 8.89998 9.86265 8.76665 9.86265C8.63398 9.86265 8.50665 9.80998 8.41265 9.71598L6.09798 7.39131C5.90332 7.19598 5.90332 6.87998 6.09932 6.68465C6.29532 6.48998 6.61198 6.49065 6.80665 6.68598L8.76665 8.65465L10.7267 6.68598C10.9213 6.49065 11.2373 6.48998 11.4333 6.68465C11.532 6.78198 11.5807 6.91065 11.5807 7.03865Z" fill="black"/>
</svg>
