<svg width="57" height="36" viewBox="0 0 57 36" fill="none" xmlns="http://www.w3.org/2000/svg">
<path d="M3.04153 23.6733C2.58112 23.1046 1.40299 24.6618 0.549867 23.917C-0.303258 23.1858 0.874868 22.1702 1.36237 21.5337C2.20195 20.4233 3.21758 19.4212 4.30091 18.5681C4.7207 18.2296 5.6957 17.7285 6.1832 18.3514C6.49466 18.7441 6.57591 19.0962 6.07487 20.0441C5.80403 20.5452 5.66862 20.816 4.95091 21.6827C4.95091 21.9535 5.35716 22.2514 5.66862 22.5223C12.1822 28.1962 19.5353 32.042 28.3238 32.4618C37.1124 32.8952 44.6686 30.1733 50.4103 23.24C50.9249 22.6306 51.629 22.0618 51.7238 21.3577C51.7915 20.8296 51.5613 20.5587 50.8436 19.5566C50.6134 19.2452 50.5051 18.4868 50.9249 18.0129C51.6155 17.2004 52.3603 17.6202 52.6176 17.8639C54.3644 19.5702 55.7186 21.5743 56.7072 23.3754C56.8967 23.9712 56.5853 24.4587 56.2738 24.7566C56.0165 25.0004 55.3394 24.9733 54.9332 24.8243C54.4592 24.6483 54.0665 24.2285 53.4436 23.7681C47.1603 32.0014 38.6697 35.9285 28.378 35.5493C18.2488 35.2108 9.37903 30.891 3.04153 23.6733Z" fill="black"/>
<path d="M39.8478 8.79184C39.8072 5.23039 42.3259 2.35955 45.4676 2.37309C48.203 2.38664 50.6405 5.17622 50.6676 8.33143C50.6811 11.3241 48.027 14.1002 45.0884 14.1408C42.1228 14.1679 39.8749 11.8793 39.8478 8.79184ZM42.4614 8.41268C42.4884 10.1189 43.653 11.3512 45.2374 11.3241C46.6186 11.2971 47.9457 9.94289 47.878 8.58872C47.8103 6.9231 46.9301 5.2033 44.7905 5.44705C43.5718 5.58247 42.4343 6.43559 42.4614 8.41268Z" fill="#CD4631"/>
<path d="M15.7302 6.056C15.7031 9.22475 13.1167 11.906 10.0562 11.9195C7.14478 11.9331 4.82916 9.36017 4.96457 6.04246C5.11353 1.96642 7.37499 0.707047 10.6927 0.409131C13.2927 0.178922 15.7437 3.131 15.7302 6.056ZM7.51041 5.77163C7.49687 7.7758 8.5802 9.27892 10.0292 9.29246C11.6406 9.30601 13.1437 7.73517 13.1437 6.01538C13.1437 4.43101 11.7083 2.91434 10.2458 2.95496C8.39062 3.00913 7.51041 3.91642 7.51041 5.77163Z" fill="#81ADC8"/>
</svg>
