<svg width="69" height="22" viewBox="0 0 69 22" fill="none" xmlns="http://www.w3.org/2000/svg">
<path d="M15.6094 7.92606C13.8625 9.51044 12.1698 10.8917 10.5448 12.5979C8.16151 15.0896 5.94067 17.7302 3.65213 20.3031C3.0563 20.9667 2.58234 21.9417 1.44484 21.4271C0.700047 21.0886 0.700047 20.2354 1.41776 18.8271C1.83755 18.0146 2.31151 17.2292 2.86671 16.4979C6.00838 12.3406 9.7188 8.75211 13.998 5.77294C14.7292 5.2719 15.5282 4.81148 16.3678 4.52711C17.9657 3.99898 19.198 4.91981 19.049 6.59898C18.9542 7.68231 18.575 8.76565 18.25 9.8219C17.6271 11.8261 16.9094 13.7896 16.3136 15.8073C16.1511 16.3625 15.948 17.324 16.2865 17.7438C16.8688 18.3667 18.6021 16.5792 19.374 15.7531C21.7438 13.2479 24.0323 10.6615 26.375 8.12919C28.7178 5.58335 31.3042 3.29481 34.324 1.57502C35.2042 1.07398 36.1521 0.640645 37.1271 0.383353C38.698 -0.0364386 39.9438 1.00627 39.8355 2.64481C39.7813 3.43023 39.5511 4.24273 39.2125 4.96044C38.3459 6.76148 37.3573 8.49481 36.45 10.2688C35.5021 12.124 34.5136 13.9792 34.1615 16.4979C34.825 15.9021 35.2584 15.5636 35.624 15.1573C38.0073 12.5844 40.3365 9.97085 42.7469 7.42502C44.9407 5.1094 47.2834 2.94273 50.1136 1.42606C51.1834 0.857312 52.3886 0.410438 53.5803 0.247938C55.2323 0.0312718 56.3698 1.29065 56.0448 2.92919C55.8011 4.1344 55.2865 5.29898 54.7719 6.4094C53.7834 8.50835 52.7001 10.5531 51.6844 12.625C51.4542 13.0854 50.7501 14.1688 51.3865 14.2771C52.0636 13.5594 52.7407 12.8281 53.4313 12.124C55.2594 10.2146 57.0469 8.27815 58.9292 6.42294C60.6219 4.74377 62.5042 3.29481 64.9146 2.75314C66.9459 2.29273 68.3813 3.5521 68.0563 5.61044C67.8938 6.59898 67.5688 7.6146 67.1084 8.50835C65.1042 12.449 63.0323 16.349 60.974 20.2625C60.7438 20.6823 60.4865 21.1292 60.1209 21.4271C59.7823 21.6979 59.2136 22.0094 58.8886 21.8875C58.5636 21.7656 57.9678 21.3323 58.0355 20.4792C58.1032 19.6938 58.3334 19.1115 58.6448 18.4073C60.0803 15.1573 61.5969 11.9479 63.0865 8.72502C63.4928 7.85836 63.9261 7.00523 64.3459 6.13856C64.4948 5.88127 64.4542 5.84065 64.373 5.74585C63.9803 5.54273 62.8969 6.36877 62.4501 6.80211C59.8907 9.26669 57.3719 11.7584 54.8667 14.2636C53.8782 15.2521 52.9709 16.3354 51.9823 17.324C51.1698 18.1365 50.1678 18.5969 49.0438 18.0552C47.9198 17.5136 47.6084 16.3761 47.798 15.2927C48.0688 13.7084 48.4073 12.0969 49.0573 10.6479C50.0323 8.44065 51.3053 6.35523 52.4428 4.21565C52.6323 3.85002 52.7948 3.45731 53.1063 2.75314C52.4021 3.05106 51.9688 3.17294 51.5761 3.38961C49.0032 4.82502 46.823 6.76148 44.8594 8.91461C42.5032 11.5011 40.2959 14.2229 37.9667 16.85C37.0459 17.8927 36.098 18.9625 35.0011 19.8021C32.875 21.4542 30.749 20.574 30.4782 17.9063C30.3563 16.6469 30.5459 15.3198 30.8438 14.0875C31.5886 10.9594 33.2813 8.23752 34.8792 5.48856C35.2178 4.90627 35.5563 4.32398 35.773 3.66044C33.1594 4.6219 31.0469 6.27398 29.1375 8.14273C26.1719 11.0406 23.3688 14.1146 20.4709 17.0667C19.7261 17.825 18.9 18.5563 17.9928 19.1115C16.449 20.0459 14.7698 19.3281 14.3907 17.5677C14.1063 16.2813 14.0928 14.8594 14.2959 13.5594C14.5803 11.65 15.8261 8.14273 15.7719 7.92606C15.7719 7.72294 15.6094 7.92606 15.6094 7.92606Z" fill="#81ADC8"/>
</svg>
