<svg width="63" height="68" viewBox="0 0 63 68" fill="none" xmlns="http://www.w3.org/2000/svg">
<path d="M62.1583 19.7413C62.5781 20.2017 62.6323 20.8788 62.3073 21.4205C62.0094 21.9215 61.7521 22.3549 61.4541 22.7611C58.3666 27.0403 56.6739 29.2747 53.6271 33.5809C52.8552 34.6642 50.9864 37.9819 50.2687 39.1194C50.2552 39.133 50.2552 39.1465 50.2417 39.1601C49.5917 40.1351 47.9937 40.0674 47.4792 38.9976C47.4792 38.9976 47.4792 38.984 47.4656 38.984C46.7073 37.3184 46.0979 35.5986 45.3937 33.9059C43.4573 29.234 40.7625 25.1851 36.2802 22.5309C34.6552 21.5694 34.6281 20.8653 35.8875 19.4705C36.3614 18.9559 36.8354 18.4278 37.35 17.9674C42.3198 13.5392 45.7458 8.0684 48.3052 1.97465C48.4677 1.59549 48.7927 1.29757 49.1448 0.999654C49.6052 0.620488 50.2687 0.674655 50.675 1.10799C51.0135 1.46007 51.325 1.83924 51.5146 2.25903C51.9344 3.23403 52.0427 4.3309 52.3 5.37361C53.6812 11.0476 56.7552 15.5705 61.4271 19.0507C61.6844 19.2403 61.9146 19.484 62.1583 19.7413ZM49.7135 6.14549C48.1021 8.82674 46.7479 11.5892 44.9062 13.9997C43.0239 16.4507 40.6677 18.5361 38.5146 20.7976C43.9854 24.0747 47.1542 29.2611 49.0635 35.6257C51.8667 29.8299 55.7396 25.2257 59.9917 20.9194C53.275 15.8007 51.6771 13.4851 49.7135 6.14549Z" fill="black"/>
<path d="M11.0927 66.4736C9.86039 62.9798 8.7906 59.4184 7.43644 55.9788C6.10935 52.6475 4.13227 49.6819 1.28852 47.3934C0.24581 46.5538 0.272893 45.7955 1.12602 44.8475C5.91977 39.634 9.6031 33.7298 12.2437 27.1621C12.5281 26.4579 13.2864 25.334 13.8146 25.334C15.25 24.9954 15.7646 27.7986 15.8187 28.0559C17.0239 34.6642 21.1135 39.4715 25.7041 43.9673C27.1937 45.4298 27.3156 45.8767 25.8531 47.285C20.3416 52.5663 16.6854 59.0663 13.5437 65.9048C12.5552 68.2882 11.2416 66.8934 11.0927 66.4736ZM2.9406 45.7819C5.8656 47.6371 7.80206 50.1152 9.21039 52.9184C10.5781 55.6673 11.5802 58.5788 12.7177 61.3684C15.3448 55.4913 18.8927 50.0611 24.2823 45.9309C19.0687 41.8277 14.9521 37.1423 13.6927 30.4257C11.4312 36.4652 7.84269 41.4892 2.9406 45.7819Z" fill="#81ADC8"/>
<path d="M48.102 51.9034C45.1093 55.9253 43.2812 60.5159 41.602 65.1878C41.4937 65.4857 41.1416 67.1784 39.8551 67.1648C39.4895 67.1648 38.8801 66.5826 38.6499 66.1221C37.6343 64.0503 36.9978 61.7346 35.7114 59.8659C34.1947 57.645 32.1093 55.8169 30.3489 53.7721C30.0916 53.4742 29.9968 52.7971 30.1593 52.4315C30.4708 51.7544 31.026 51.2128 31.4593 50.5898C33.6666 47.3398 35.8333 44.0628 38.1083 40.8669C38.5822 40.2034 39.5166 39.4044 40.0718 39.4044C41.453 39.3909 41.7239 40.4742 41.9676 41.2461C43.078 44.794 44.9874 47.7596 47.7635 50.2107C48.752 51.1315 48.2239 51.7409 48.102 51.9034ZM32.8947 52.8378C36.1176 55.1263 38.3114 58.4305 39.6385 62.1273C41.602 58.5253 43.6062 54.8555 45.6645 51.0638C42.902 49.1544 40.9791 45.593 40.0989 42.9659C37.6885 46.27 35.3051 49.5336 32.8947 52.8378Z" fill="#CD4631"/>
</svg>
