<svg width="849" height="166" viewBox="0 0 849 166" fill="none" xmlns="http://www.w3.org/2000/svg">
<path d="M398.424 0.799995V68H382.968V13.472H352.632V68H337.176V0.799995H398.424ZM436.587 15.584C442.091 15.584 446.891 16.672 450.987 18.848C455.083 21.024 458.251 24.128 460.491 28.16C462.731 32.192 463.851 36.896 463.851 42.272C463.851 47.52 462.795 52.16 460.683 56.192C458.571 60.16 455.595 63.264 451.755 65.504C447.915 67.68 443.499 68.768 438.507 68.768C431.915 68.768 426.763 66.688 423.051 62.528V86.624H408.075V42.368C408.075 37.056 409.259 32.384 411.627 28.352C413.995 24.32 417.323 21.184 421.611 18.944C425.899 16.704 430.891 15.584 436.587 15.584ZM435.915 56.48C439.819 56.48 442.987 55.168 445.419 52.544C447.851 49.92 449.067 46.496 449.067 42.272C449.067 37.984 447.851 34.528 445.419 31.904C442.987 29.216 439.819 27.872 435.915 27.872C432.011 27.872 428.843 29.184 426.411 31.808C424.043 34.432 422.859 37.888 422.859 42.176C422.859 46.464 424.043 49.92 426.411 52.544C428.779 55.168 431.947 56.48 435.915 56.48ZM494.755 68.768C489.315 68.768 484.419 67.648 480.067 65.408C475.779 63.104 472.419 59.936 469.987 55.904C467.555 51.872 466.339 47.296 466.339 42.176C466.339 37.056 467.555 32.48 469.987 28.448C472.419 24.416 475.779 21.28 480.067 19.04C484.419 16.736 489.315 15.584 494.755 15.584C500.195 15.584 505.059 16.736 509.347 19.04C513.635 21.28 516.995 24.416 519.427 28.448C521.859 32.48 523.075 37.056 523.075 42.176C523.075 47.296 521.859 51.872 519.427 55.904C516.995 59.936 513.635 63.104 509.347 65.408C505.059 67.648 500.195 68.768 494.755 68.768ZM494.755 56.48C498.595 56.48 501.731 55.2 504.163 52.64C506.659 50.016 507.907 46.528 507.907 42.176C507.907 37.824 506.659 34.368 504.163 31.808C501.731 29.184 498.595 27.872 494.755 27.872C490.915 27.872 487.747 29.184 485.251 31.808C482.755 34.368 481.507 37.824 481.507 42.176C481.507 46.528 482.755 50.016 485.251 52.64C487.747 55.2 490.915 56.48 494.755 56.48Z" fill="black"/>
<path d="M58.1655 115.616C52.4055 112.288 46.2295 110.144 39.6375 109.184V164H24.0855V109.184C17.4935 110.144 11.2855 112.288 5.46151 115.616L0.181505 104C4.7895 101.248 9.78151 99.168 15.1575 97.76C20.5335 96.352 26.0695 95.648 31.7655 95.648C37.5255 95.648 43.0935 96.352 48.4695 97.76C53.9095 99.168 58.9015 101.248 63.4455 104L58.1655 115.616ZM106.259 137.024C112.339 139.072 115.379 143.168 115.379 149.312C115.379 153.984 113.619 157.6 110.099 160.16C106.579 162.72 101.331 164 94.3545 164H66.8025V112.352H93.2025C99.6665 112.352 104.723 113.536 108.371 115.904C112.019 118.208 113.843 121.472 113.843 125.696C113.843 128.256 113.171 130.528 111.827 132.512C110.547 134.432 108.691 135.936 106.259 137.024ZM80.5305 133.568H91.8585C97.1065 133.568 99.7305 131.712 99.7305 128C99.7305 124.352 97.1065 122.528 91.8585 122.528H80.5305V133.568ZM93.1065 153.824C98.6105 153.824 101.363 151.936 101.363 148.16C101.363 146.176 100.723 144.736 99.4425 143.84C98.1625 142.88 96.1465 142.4 93.3945 142.4H80.5305V153.824H93.1065ZM146.873 164.768C141.433 164.768 136.537 163.648 132.185 161.408C127.897 159.104 124.537 155.936 122.105 151.904C119.673 147.872 118.457 143.296 118.457 138.176C118.457 133.056 119.673 128.48 122.105 124.448C124.537 120.416 127.897 117.28 132.185 115.04C136.537 112.736 141.433 111.584 146.873 111.584C152.313 111.584 157.177 112.736 161.465 115.04C165.753 117.28 169.113 120.416 171.545 124.448C173.977 128.48 175.193 133.056 175.193 138.176C175.193 143.296 173.977 147.872 171.545 151.904C169.113 155.936 165.753 159.104 161.465 161.408C157.177 163.648 152.313 164.768 146.873 164.768ZM146.873 152.48C150.713 152.48 153.849 151.2 156.281 148.64C158.777 146.016 160.025 142.528 160.025 138.176C160.025 133.824 158.777 130.368 156.281 127.808C153.849 125.184 150.713 123.872 146.873 123.872C143.033 123.872 139.865 125.184 137.369 127.808C134.873 130.368 133.625 133.824 133.625 138.176C133.625 142.528 134.873 146.016 137.369 148.64C139.865 151.2 143.033 152.48 146.873 152.48ZM232.63 112.352V164H218.326V157.952C216.406 160.192 214.038 161.888 211.222 163.04C208.47 164.192 205.526 164.768 202.39 164.768C195.606 164.768 190.198 162.816 186.166 158.912C182.198 155.008 180.214 149.216 180.214 141.536V112.352H195.19V139.328C195.19 147.648 198.678 151.808 205.654 151.808C209.302 151.808 212.214 150.656 214.39 148.352C216.566 145.984 217.654 142.496 217.654 137.888V112.352H232.63ZM206.038 106.784C194.774 106.784 189.11 101.824 189.046 91.904H198.838C198.902 94.144 199.51 95.904 200.662 97.184C201.878 98.4 203.638 99.008 205.942 99.008C208.246 99.008 210.006 98.4 211.222 97.184C212.502 95.904 213.142 94.144 213.142 91.904H223.126C223.062 101.824 217.366 106.784 206.038 106.784ZM297.419 95.648C303.627 95.648 309.035 96.864 313.643 99.296C318.251 101.728 321.835 105.312 324.395 110.048C326.955 114.784 328.235 120.512 328.235 127.232V164H312.683V147.872H281.963V164H266.603V127.232C266.603 120.512 267.883 114.784 270.443 110.048C273.003 105.312 276.587 101.728 281.195 99.296C285.803 96.864 291.211 95.648 297.419 95.648ZM312.683 135.392V125.792C312.683 120.224 311.307 116.032 308.555 113.216C305.803 110.336 302.059 108.896 297.323 108.896C292.523 108.896 288.747 110.336 285.995 113.216C283.307 116.032 281.963 120.224 281.963 125.792V135.392H312.683ZM338.977 112.352H353.857V132.512H376.321V112.352H391.297V164H376.321V144.704H353.857V164H338.977V112.352ZM443.17 124.64H416.674V164H401.794V112.352H443.17V124.64ZM493.052 112.352V164H478.076V124.64H461.756L461.276 133.76C461.02 140.544 460.38 146.176 459.356 150.656C458.332 155.136 456.668 158.656 454.364 161.216C452.06 163.776 448.86 165.056 444.764 165.056C442.588 165.056 439.996 164.672 436.988 163.904L437.756 151.616C438.78 151.744 439.516 151.808 439.964 151.808C442.204 151.808 443.868 151.008 444.956 149.408C446.108 147.744 446.876 145.664 447.26 143.168C447.644 140.608 447.932 137.248 448.124 133.088L448.892 112.352H493.052ZM554.59 112.352V164H540.286V157.952C538.366 160.192 535.998 161.888 533.182 163.04C530.43 164.192 527.486 164.768 524.35 164.768C517.566 164.768 512.158 162.816 508.126 158.912C504.158 155.008 502.174 149.216 502.174 141.536V112.352H517.15V139.328C517.15 147.648 520.638 151.808 527.614 151.808C531.262 151.808 534.174 150.656 536.35 148.352C538.526 145.984 539.614 142.496 539.614 137.888V112.352H554.59ZM616 112.352V164H601.696V157.952C599.776 160.192 597.408 161.888 594.592 163.04C591.84 164.192 588.896 164.768 585.76 164.768C578.976 164.768 573.568 162.816 569.536 158.912C565.568 155.008 563.584 149.216 563.584 141.536V112.352H578.56V139.328C578.56 147.648 582.048 151.808 589.024 151.808C592.672 151.808 595.584 150.656 597.76 148.352C599.936 145.984 601.024 142.496 601.024 137.888V112.352H616ZM589.408 106.784C578.144 106.784 572.48 101.824 572.416 91.904H582.208C582.272 94.144 582.88 95.904 584.032 97.184C585.248 98.4 587.008 99.008 589.312 99.008C591.616 99.008 593.376 98.4 594.592 97.184C595.872 95.904 596.512 94.144 596.512 91.904H606.496C606.432 101.824 600.736 106.784 589.408 106.784ZM651.01 164.768C645.506 164.768 640.546 163.648 636.13 161.408C631.778 159.104 628.354 155.936 625.858 151.904C623.426 147.872 622.21 143.296 622.21 138.176C622.21 133.056 623.426 128.48 625.858 124.448C628.354 120.416 631.778 117.28 636.13 115.04C640.546 112.736 645.506 111.584 651.01 111.584C656.45 111.584 661.186 112.736 665.218 115.04C669.314 117.28 672.29 120.512 674.146 124.736L662.53 130.976C659.842 126.24 655.97 123.872 650.914 123.872C647.01 123.872 643.778 125.152 641.218 127.712C638.658 130.272 637.378 133.76 637.378 138.176C637.378 142.592 638.658 146.08 641.218 148.64C643.778 151.2 647.01 152.48 650.914 152.48C656.034 152.48 659.906 150.112 662.53 145.376L674.146 151.712C672.29 155.808 669.314 159.008 665.218 161.312C661.186 163.616 656.45 164.768 651.01 164.768ZM702.158 144.416H694.382V164H679.406V112.352H694.382V132.416H702.446L716.462 112.352H732.398L714.35 137.12L733.646 164H715.982L702.158 144.416ZM787.199 112.352V164H772.895V157.952C770.975 160.192 768.607 161.888 765.791 163.04C763.039 164.192 760.095 164.768 756.959 164.768C750.175 164.768 744.767 162.816 740.735 158.912C736.767 155.008 734.783 149.216 734.783 141.536V112.352H749.759V139.328C749.759 147.648 753.247 151.808 760.223 151.808C763.871 151.808 766.783 150.656 768.959 148.352C771.135 145.984 772.223 142.496 772.223 137.888V112.352H787.199ZM848.608 112.352V164H834.304V157.952C832.384 160.192 830.016 161.888 827.2 163.04C824.448 164.192 821.504 164.768 818.368 164.768C811.584 164.768 806.176 162.816 802.144 158.912C798.176 155.008 796.192 149.216 796.192 141.536V112.352H811.168V139.328C811.168 147.648 814.656 151.808 821.632 151.808C825.28 151.808 828.192 150.656 830.368 148.352C832.544 145.984 833.632 142.496 833.632 137.888V112.352H848.608ZM822.016 106.784C810.752 106.784 805.088 101.824 805.024 91.904H814.816C814.88 94.144 815.488 95.904 816.64 97.184C817.856 98.4 819.616 99.008 821.92 99.008C824.224 99.008 825.984 98.4 827.2 97.184C828.48 95.904 829.12 94.144 829.12 91.904H839.104C839.04 101.824 833.344 106.784 822.016 106.784Z" fill="#CD4631"/>
</svg>
