<svg width="275" height="113" viewBox="0 0 275 113" fill="none" xmlns="http://www.w3.org/2000/svg">
<g clip-path="url(#clip0_88_2)">
<path d="M32 68C26.0985 68 20.3119 66.368 15.28 63.2845C10.2482 60.2009 6.16702 55.786 3.48779 50.5277C0.808558 45.2694 -0.364381 39.3726 0.098643 33.4893C0.561671 27.606 2.64263 21.9653 6.11145 17.1909C9.58028 12.4164 14.3018 8.69427 19.7541 6.43585C25.2064 4.17744 31.177 3.47077 37.0059 4.39397C42.8348 5.31717 48.2948 7.83428 52.7823 11.667C57.2699 15.4997 60.6101 20.4988 62.4338 26.1115L59.3904 27.1003C57.7491 22.0489 54.7429 17.5498 50.7041 14.1003C46.6653 10.6509 41.7513 8.38546 36.5053 7.55457C31.2593 6.72369 25.8858 7.3597 20.9787 9.39227C16.0717 11.4248 11.8222 14.7748 8.70031 19.0718C5.57837 23.3688 3.7055 28.4454 3.28878 33.7404C2.87205 39.0354 3.9277 44.3425 6.33901 49.0749C8.75032 53.8074 12.4234 57.7809 16.952 60.556C21.4807 63.3312 26.6886 64.8 32 64.8L32 68Z" fill="black"/>
<path d="M44.17 42.16C43.7033 42.4773 43.1153 42.7247 42.406 42.902C41.706 43.0793 40.9593 43.168 40.166 43.168C39.1767 43.168 38.3367 43.0467 37.646 42.804C36.9553 42.552 36.4327 42.2067 36.078 41.768C35.7233 41.32 35.546 40.8113 35.546 40.242C35.546 39.7193 35.6907 39.2573 35.98 38.856C36.2693 38.4547 36.666 38.156 37.17 37.96C36.7873 37.7547 36.4887 37.4747 36.274 37.12C36.0687 36.7653 35.966 36.3687 35.966 35.93C35.966 35.398 36.1293 34.9127 36.456 34.474C36.7827 34.0353 37.2773 33.6853 37.94 33.424C38.6027 33.1627 39.4147 33.032 40.376 33.032C41.0107 33.032 41.6313 33.0973 42.238 33.228C42.8447 33.3493 43.372 33.5173 43.82 33.732L43.19 35.468C42.3313 35.0667 41.4213 34.866 40.46 34.866C39.732 34.866 39.1813 34.978 38.808 35.202C38.444 35.4167 38.262 35.7107 38.262 36.084C38.262 36.4293 38.3833 36.6953 38.626 36.882C38.878 37.0593 39.256 37.148 39.76 37.148H42.434V38.94H39.62C39.0507 38.94 38.612 39.038 38.304 39.234C37.996 39.43 37.842 39.7147 37.842 40.088C37.842 40.48 38.038 40.788 38.43 41.012C38.8313 41.2267 39.4427 41.334 40.264 41.334C40.8427 41.334 41.4213 41.2593 42 41.11C42.5787 40.9513 43.0687 40.732 43.47 40.452L44.17 42.16ZM50.1339 33.032C51.3006 33.032 52.2106 33.4007 52.8639 34.138C53.5172 34.866 53.8439 35.9067 53.8439 37.26V43H51.5759V37.33C51.5759 36.546 51.3892 35.958 51.0159 35.566C50.6519 35.1647 50.1432 34.964 49.4899 34.964C48.7992 34.964 48.2439 35.1787 47.8239 35.608C47.4132 36.028 47.2079 36.6533 47.2079 37.484V43H44.9399V33.2H47.1379V34.39C47.4739 33.942 47.8939 33.606 48.3979 33.382C48.9019 33.1487 49.4806 33.032 50.1339 33.032ZM62.1445 37.946H64.2165V43H62.5085V42.412C61.8271 42.916 60.9498 43.168 59.8765 43.168C58.9711 43.168 58.1405 42.972 57.3845 42.58C56.6285 42.188 56.0265 41.6187 55.5785 40.872C55.1305 40.116 54.9065 39.22 54.9065 38.184C54.9065 37.1853 55.1351 36.2987 55.5925 35.524C56.0591 34.74 56.7031 34.1287 57.5245 33.69C58.3458 33.2513 59.2698 33.032 60.2965 33.032C61.1551 33.032 61.9345 33.1767 62.6345 33.466C63.3345 33.7553 63.9225 34.1753 64.3985 34.726L62.9425 36.07C62.2425 35.3327 61.3978 34.964 60.4085 34.964C59.7831 34.964 59.2278 35.0993 58.7425 35.37C58.2571 35.6313 57.8791 36.0047 57.6085 36.49C57.3378 36.9753 57.2025 37.5353 57.2025 38.17C57.2025 38.8327 57.3331 39.3973 57.5945 39.864C57.8651 40.3307 58.2245 40.6853 58.6725 40.928C59.1205 41.1613 59.6105 41.278 60.1425 41.278C60.9358 41.278 61.6031 41.054 62.1445 40.606V37.946Z" fill="#CD4631"/>
<path d="M40.726 47.964C39.942 47.964 39.3493 48.1367 38.948 48.482C38.5467 48.818 38.346 49.3267 38.346 50.008V50.61H42.378V52.43H38.346V56H36.078V50.022C36.078 48.762 36.47 47.782 37.254 47.082C38.0473 46.382 39.1533 46.032 40.572 46.032C41.132 46.032 41.6593 46.0927 42.154 46.214C42.6487 46.326 43.078 46.494 43.442 46.718L42.742 48.51C42.182 48.146 41.51 47.964 40.726 47.964ZM48.7972 56.168C47.7799 56.168 46.8606 55.9487 46.0392 55.51C45.2272 55.0713 44.5879 54.4693 44.1212 53.704C43.6639 52.9293 43.4352 52.0613 43.4352 51.1C43.4352 50.1387 43.6639 49.2753 44.1212 48.51C44.5879 47.7353 45.2272 47.1287 46.0392 46.69C46.8606 46.2513 47.7799 46.032 48.7972 46.032C49.8146 46.032 50.7292 46.2513 51.5412 46.69C52.3532 47.1287 52.9926 47.7353 53.4592 48.51C53.9259 49.2753 54.1592 50.1387 54.1592 51.1C54.1592 52.0613 53.9259 52.9293 53.4592 53.704C52.9926 54.4693 52.3532 55.0713 51.5412 55.51C50.7292 55.9487 49.8146 56.168 48.7972 56.168ZM48.7972 54.236C49.3759 54.236 49.8986 54.1053 50.3652 53.844C50.8319 53.5733 51.1959 53.2 51.4572 52.724C51.7279 52.248 51.8632 51.7067 51.8632 51.1C51.8632 50.4933 51.7279 49.952 51.4572 49.476C51.1959 49 50.8319 48.6313 50.3652 48.37C49.8986 48.0993 49.3759 47.964 48.7972 47.964C48.2186 47.964 47.6959 48.0993 47.2292 48.37C46.7626 48.6313 46.3939 49 46.1232 49.476C45.8619 49.952 45.7312 50.4933 45.7312 51.1C45.7312 51.7067 45.8619 52.248 46.1232 52.724C46.3939 53.2 46.7626 53.5733 47.2292 53.844C47.6959 54.1053 48.2186 54.236 48.7972 54.236ZM61.5477 56L59.6577 53.27H59.5457H57.5717V56H55.3037V46.2H59.5457C60.4137 46.2 61.1651 46.3447 61.7997 46.634C62.4437 46.9233 62.9384 47.334 63.2837 47.866C63.6291 48.398 63.8017 49.028 63.8017 49.756C63.8017 50.484 63.6244 51.114 63.2697 51.646C62.9244 52.1687 62.4297 52.57 61.7857 52.85L63.9837 56H61.5477ZM61.5057 49.756C61.5057 49.2053 61.3284 48.7853 60.9737 48.496C60.6191 48.1973 60.1011 48.048 59.4197 48.048H57.5717V51.464H59.4197C60.1011 51.464 60.6191 51.3147 60.9737 51.016C61.3284 50.7173 61.5057 50.2973 61.5057 49.756ZM44.912 59.2V65.934C44.912 67.4087 44.5013 68.538 43.68 69.322C42.8587 70.1153 41.7247 70.512 40.278 70.512C39.4473 70.512 38.6867 70.3953 37.996 70.162C37.3053 69.938 36.7173 69.616 36.232 69.196L37.114 67.516C38.0007 68.2347 39.0367 68.594 40.222 68.594C41.0433 68.594 41.65 68.3887 42.042 67.978C42.4433 67.558 42.644 66.914 42.644 66.046V65.444C41.9907 66.2467 41.0667 66.648 39.872 66.648C38.6307 66.648 37.674 66.298 37.002 65.598C36.3393 64.8887 36.008 63.8713 36.008 62.546V59.2H38.276V62.406C38.276 63.1713 38.458 63.75 38.822 64.142C39.186 64.534 39.6993 64.73 40.362 64.73C41.062 64.73 41.6173 64.5247 42.028 64.114C42.4387 63.7033 42.644 63.0827 42.644 62.252V59.2H44.912ZM51.3402 69.168C50.3229 69.168 49.4035 68.9487 48.5822 68.51C47.7702 68.0713 47.1309 67.4693 46.6642 66.704C46.2069 65.9293 45.9782 65.0613 45.9782 64.1C45.9782 63.1387 46.2069 62.2753 46.6642 61.51C47.1309 60.7353 47.7702 60.1287 48.5822 59.69C49.4035 59.2513 50.3229 59.032 51.3402 59.032C52.3575 59.032 53.2722 59.2513 54.0842 59.69C54.8962 60.1287 55.5355 60.7353 56.0022 61.51C56.4689 62.2753 56.7022 63.1387 56.7022 64.1C56.7022 65.0613 56.4689 65.9293 56.0022 66.704C55.5355 67.4693 54.8962 68.0713 54.0842 68.51C53.2722 68.9487 52.3575 69.168 51.3402 69.168ZM51.3402 67.236C51.9189 67.236 52.4415 67.1053 52.9082 66.844C53.3749 66.5733 53.7389 66.2 54.0002 65.724C54.2709 65.248 54.4062 64.7067 54.4062 64.1C54.4062 63.4933 54.2709 62.952 54.0002 62.476C53.7389 62 53.3749 61.6313 52.9082 61.37C52.4415 61.0993 51.9189 60.964 51.3402 60.964C50.7615 60.964 50.2389 61.0993 49.7722 61.37C49.3055 61.6313 48.9369 62 48.6662 62.476C48.4049 62.952 48.2742 63.4933 48.2742 64.1C48.2742 64.7067 48.4049 65.248 48.6662 65.724C48.9369 66.2 49.3055 66.5733 49.7722 66.844C50.2389 67.1053 50.7615 67.236 51.3402 67.236ZM66.6107 59.2V69H64.4127V67.81C63.7407 68.7153 62.7514 69.168 61.4447 69.168C60.2874 69.168 59.382 68.804 58.7287 68.076C58.0847 67.3387 57.7627 66.2933 57.7627 64.94V59.2H60.0307V64.87C60.0307 65.654 60.2127 66.2467 60.5767 66.648C60.95 67.04 61.454 67.236 62.0887 67.236C62.77 67.236 63.316 67.026 63.7267 66.606C64.1374 66.1767 64.3427 65.5467 64.3427 64.716V59.2H66.6107Z" fill="black"/>
</g>
<path d="M9.954 97.2V107H8.554V102.632H2.926V107H1.526V97.2H2.926V101.414H8.554V97.2H9.954ZM19.7584 99.58V107H18.4704V105.824C18.1717 106.235 17.7937 106.547 17.3364 106.762C16.879 106.977 16.375 107.084 15.8244 107.084C15.1057 107.084 14.4617 106.925 13.8924 106.608C13.323 106.291 12.875 105.847 12.5484 105.278C12.231 104.699 12.0724 104.037 12.0724 103.29C12.0724 102.543 12.231 101.885 12.5484 101.316C12.875 100.747 13.323 100.303 13.8924 99.986C14.4617 99.6687 15.1057 99.51 15.8244 99.51C16.3564 99.51 16.8464 99.6127 17.2944 99.818C17.7424 100.014 18.1157 100.308 18.4144 100.7V99.58H19.7584ZM15.9364 105.908C16.403 105.908 16.8277 105.801 17.2104 105.586C17.593 105.362 17.8917 105.054 18.1064 104.662C18.321 104.261 18.4284 103.803 18.4284 103.29C18.4284 102.777 18.321 102.324 18.1064 101.932C17.8917 101.531 17.593 101.223 17.2104 101.008C16.8277 100.793 16.403 100.686 15.9364 100.686C15.4604 100.686 15.031 100.793 14.6484 101.008C14.275 101.223 13.9764 101.531 13.7524 101.932C13.5377 102.324 13.4304 102.777 13.4304 103.29C13.4304 103.803 13.5377 104.261 13.7524 104.662C13.9764 105.054 14.275 105.362 14.6484 105.586C15.031 105.801 15.4604 105.908 15.9364 105.908ZM28.2513 99.58V107H26.9073V104.004C26.1047 104.377 25.3067 104.564 24.5133 104.564C23.5893 104.564 22.8753 104.349 22.3713 103.92C21.8673 103.491 21.6153 102.847 21.6153 101.988V99.58H22.9593V101.904C22.9593 102.417 23.118 102.805 23.4353 103.066C23.762 103.327 24.2147 103.458 24.7933 103.458C25.4467 103.458 26.1513 103.295 26.9073 102.968V99.58H28.2513ZM30.8606 99.58H32.2046V102.73H36.4326V99.58H37.7766V107H36.4326V103.892H32.2046V107H30.8606V99.58ZM47.1519 99.58V107H45.8639V105.908C45.5932 106.281 45.2386 106.571 44.7999 106.776C44.3612 106.981 43.8806 107.084 43.3579 107.084C42.3686 107.084 41.5892 106.813 41.0199 106.272C40.4506 105.721 40.1659 104.914 40.1659 103.85V99.58H41.5099V103.696C41.5099 104.415 41.6826 104.961 42.0279 105.334C42.3732 105.698 42.8679 105.88 43.5119 105.88C44.2212 105.88 44.7812 105.665 45.1919 105.236C45.6026 104.807 45.8079 104.2 45.8079 103.416V99.58H47.1519ZM60.4026 99.58V107H59.0586V100.756H54.8726V107H53.5286V99.58H60.4026ZM66.5312 99.51C67.2778 99.51 67.9358 99.6687 68.5052 99.986C69.0838 100.303 69.5272 100.751 69.8352 101.33C70.1525 101.899 70.3112 102.557 70.3112 103.304C70.3112 104.041 70.1572 104.699 69.8492 105.278C69.5412 105.847 69.1118 106.291 68.5612 106.608C68.0105 106.925 67.3805 107.084 66.6712 107.084C66.1112 107.084 65.6072 106.986 65.1592 106.79C64.7112 106.585 64.3378 106.291 64.0392 105.908V109.716H62.6812V103.318C62.6812 102.571 62.8398 101.909 63.1572 101.33C63.4838 100.751 63.9365 100.303 64.5152 99.986C65.1032 99.6687 65.7752 99.51 66.5312 99.51ZM66.4892 105.908C66.9652 105.908 67.3945 105.801 67.7772 105.586C68.1598 105.362 68.4538 105.054 68.6592 104.662C68.8738 104.261 68.9812 103.808 68.9812 103.304C68.9812 102.8 68.8738 102.352 68.6592 101.96C68.4538 101.559 68.1598 101.246 67.7772 101.022C67.4038 100.798 66.9745 100.686 66.4892 100.686C65.7518 100.686 65.1545 100.929 64.6972 101.414C64.2398 101.89 64.0112 102.515 64.0112 103.29C64.0112 103.803 64.1138 104.261 64.3192 104.662C64.5338 105.054 64.8278 105.362 65.2012 105.586C65.5745 105.801 66.0038 105.908 66.4892 105.908ZM77.9766 99.58V107H76.7726V104.648H74.6166H74.4626L72.8386 107H71.3966L73.2026 104.466C72.6426 104.298 72.2133 104.023 71.9146 103.64C71.6159 103.248 71.4666 102.763 71.4666 102.184C71.4666 101.335 71.7559 100.691 72.3346 100.252C72.9133 99.804 73.7113 99.58 74.7286 99.58H77.9766ZM72.8386 102.226C72.8386 102.721 72.9926 103.089 73.3006 103.332C73.6179 103.565 74.0893 103.682 74.7146 103.682H76.7726V100.756H74.7706C73.4826 100.756 72.8386 101.246 72.8386 102.226ZM89.1529 99.58V107H87.9349V101.582L85.1629 106.16H84.5749L81.8309 101.568V107H80.5989V99.58H81.9849L84.8969 104.592L87.8929 99.58H89.1529ZM94.9468 107.084C94.2095 107.084 93.5468 106.921 92.9588 106.594C92.3708 106.267 91.9088 105.819 91.5728 105.25C91.2461 104.671 91.0828 104.018 91.0828 103.29C91.0828 102.562 91.2461 101.913 91.5728 101.344C91.9088 100.765 92.3708 100.317 92.9588 100C93.5468 99.6733 94.2095 99.51 94.9468 99.51C95.6841 99.51 96.3421 99.6733 96.9208 100C97.5088 100.317 97.9661 100.765 98.2928 101.344C98.6288 101.913 98.7968 102.562 98.7968 103.29C98.7968 104.018 98.6288 104.671 98.2928 105.25C97.9661 105.819 97.5088 106.267 96.9208 106.594C96.3421 106.921 95.6841 107.084 94.9468 107.084ZM94.9468 105.908C95.4228 105.908 95.8475 105.801 96.2208 105.586C96.6035 105.362 96.9021 105.054 97.1168 104.662C97.3315 104.261 97.4388 103.803 97.4388 103.29C97.4388 102.777 97.3315 102.324 97.1168 101.932C96.9021 101.531 96.6035 101.223 96.2208 101.008C95.8475 100.793 95.4228 100.686 94.9468 100.686C94.4708 100.686 94.0415 100.793 93.6588 101.008C93.2855 101.223 92.9868 101.531 92.7628 101.932C92.5481 102.324 92.4408 102.777 92.4408 103.29C92.4408 103.803 92.5481 104.261 92.7628 104.662C92.9868 105.054 93.2855 105.362 93.6588 105.586C94.0415 105.801 94.4708 105.908 94.9468 105.908ZM107.731 107.084C106.975 107.084 106.299 106.921 105.701 106.594C105.113 106.267 104.651 105.819 104.315 105.25C103.979 104.671 103.811 104.018 103.811 103.29C103.811 102.562 103.979 101.913 104.315 101.344C104.651 100.765 105.113 100.317 105.701 100C106.299 99.6733 106.975 99.51 107.731 99.51C108.403 99.51 109.001 99.6453 109.523 99.916C110.055 100.187 110.466 100.579 110.755 101.092L109.733 101.75C109.5 101.395 109.211 101.129 108.865 100.952C108.52 100.775 108.137 100.686 107.717 100.686C107.232 100.686 106.793 100.793 106.401 101.008C106.019 101.223 105.715 101.531 105.491 101.932C105.277 102.324 105.169 102.777 105.169 103.29C105.169 103.813 105.277 104.275 105.491 104.676C105.715 105.068 106.019 105.371 106.401 105.586C106.793 105.801 107.232 105.908 107.717 105.908C108.137 105.908 108.52 105.819 108.865 105.642C109.211 105.465 109.5 105.199 109.733 104.844L110.755 105.488C110.466 106.001 110.055 106.398 109.523 106.678C109.001 106.949 108.403 107.084 107.731 107.084ZM115.704 105.908C116.591 105.908 117.305 105.609 117.846 105.012L118.574 105.88C118.247 106.272 117.832 106.571 117.328 106.776C116.833 106.981 116.278 107.084 115.662 107.084C114.878 107.084 114.183 106.925 113.576 106.608C112.969 106.281 112.498 105.829 112.162 105.25C111.835 104.671 111.672 104.018 111.672 103.29C111.672 102.571 111.831 101.923 112.148 101.344C112.475 100.765 112.918 100.317 113.478 100C114.047 99.6733 114.687 99.51 115.396 99.51C116.068 99.51 116.679 99.664 117.23 99.972C117.781 100.271 118.219 100.695 118.546 101.246C118.873 101.797 119.041 102.431 119.05 103.15L113.156 104.298C113.343 104.811 113.655 105.208 114.094 105.488C114.542 105.768 115.079 105.908 115.704 105.908ZM115.396 100.644C114.929 100.644 114.509 100.751 114.136 100.966C113.772 101.181 113.487 101.484 113.282 101.876C113.077 102.259 112.974 102.707 112.974 103.22V103.36L117.72 102.464C117.599 101.923 117.328 101.484 116.908 101.148C116.488 100.812 115.984 100.644 115.396 100.644ZM127.72 99.58V107H126.432V105.908C126.162 106.281 125.807 106.571 125.368 106.776C124.93 106.981 124.449 107.084 123.926 107.084C122.937 107.084 122.158 106.813 121.588 106.272C121.019 105.721 120.734 104.914 120.734 103.85V99.58H122.078V103.696C122.078 104.415 122.251 104.961 122.596 105.334C122.942 105.698 123.436 105.88 124.08 105.88C124.79 105.88 125.35 105.665 125.76 105.236C126.171 104.807 126.376 104.2 126.376 103.416V99.58H127.72ZM124.22 98.614C123.53 98.614 122.993 98.4507 122.61 98.124C122.228 97.788 122.032 97.3073 122.022 96.682H122.932C122.942 97.0273 123.058 97.3073 123.282 97.522C123.516 97.7273 123.824 97.83 124.206 97.83C124.589 97.83 124.897 97.7273 125.13 97.522C125.364 97.3073 125.485 97.0273 125.494 96.682H126.432C126.423 97.3073 126.222 97.788 125.83 98.124C125.438 98.4507 124.902 98.614 124.22 98.614ZM136.259 99.58V107H134.915V104.004C134.112 104.377 133.314 104.564 132.521 104.564C131.597 104.564 130.883 104.349 130.379 103.92C129.875 103.491 129.623 102.847 129.623 101.988V99.58H130.967V101.904C130.967 102.417 131.126 102.805 131.443 103.066C131.77 103.327 132.222 103.458 132.801 103.458C133.454 103.458 134.159 103.295 134.915 102.968V99.58H136.259ZM145.84 99.58V107H144.552V105.824C144.254 106.235 143.876 106.547 143.418 106.762C142.961 106.977 142.457 107.084 141.906 107.084C141.188 107.084 140.544 106.925 139.974 106.608C139.405 106.291 138.957 105.847 138.63 105.278C138.313 104.699 138.154 104.037 138.154 103.29C138.154 102.543 138.313 101.885 138.63 101.316C138.957 100.747 139.405 100.303 139.974 99.986C140.544 99.6687 141.188 99.51 141.906 99.51C142.438 99.51 142.928 99.6127 143.376 99.818C143.824 100.014 144.198 100.308 144.496 100.7V99.58H145.84ZM142.018 105.908C142.485 105.908 142.91 105.801 143.292 105.586C143.675 105.362 143.974 105.054 144.188 104.662C144.403 104.261 144.51 103.803 144.51 103.29C144.51 102.777 144.403 102.324 144.188 101.932C143.974 101.531 143.675 101.223 143.292 101.008C142.91 100.793 142.485 100.686 142.018 100.686C141.542 100.686 141.113 100.793 140.73 101.008C140.357 101.223 140.058 101.531 139.834 101.932C139.62 102.324 139.512 102.777 139.512 103.29C139.512 103.803 139.62 104.261 139.834 104.662C140.058 105.054 140.357 105.362 140.73 105.586C141.113 105.801 141.542 105.908 142.018 105.908ZM151.645 107.084C150.889 107.084 150.213 106.921 149.615 106.594C149.027 106.267 148.565 105.819 148.229 105.25C147.893 104.671 147.725 104.018 147.725 103.29C147.725 102.562 147.893 101.913 148.229 101.344C148.565 100.765 149.027 100.317 149.615 100C150.213 99.6733 150.889 99.51 151.645 99.51C152.317 99.51 152.915 99.6453 153.437 99.916C153.969 100.187 154.38 100.579 154.669 101.092L153.647 101.75C153.414 101.395 153.125 101.129 152.779 100.952C152.434 100.775 152.051 100.686 151.631 100.686C151.146 100.686 150.707 100.793 150.315 101.008C149.933 101.223 149.629 101.531 149.405 101.932C149.191 102.324 149.083 102.777 149.083 103.29C149.083 103.813 149.191 104.275 149.405 104.676C149.629 105.068 149.933 105.371 150.315 105.586C150.707 105.801 151.146 105.908 151.631 105.908C152.051 105.908 152.434 105.819 152.779 105.642C153.125 105.465 153.414 105.199 153.647 104.844L154.669 105.488C154.38 106.001 153.969 106.398 153.437 106.678C152.915 106.949 152.317 107.084 151.645 107.084Z" fill="#4D4D4D"/>
<path d="M102.8 69.036C102.016 69.036 101.3 68.848 100.652 68.472C100.012 68.096 99.504 67.584 99.128 66.936C98.76 66.288 98.576 65.576 98.576 64.8C98.576 64.024 98.76 63.312 99.128 62.664C99.504 62.016 100.016 61.504 100.664 61.128C101.312 60.752 102.032 60.564 102.824 60.564C103.616 60.564 104.332 60.748 104.972 61.116C105.62 61.484 106.128 61.992 106.496 62.64C106.864 63.28 107.048 63.992 107.048 64.776C107.048 65.56 106.86 66.28 106.484 66.936C106.108 67.584 105.596 68.096 104.948 68.472C104.3 68.848 103.584 69.036 102.8 69.036ZM102.8 68.496C103.488 68.496 104.112 68.332 104.672 68.004C105.232 67.676 105.672 67.228 105.992 66.66C106.32 66.092 106.484 65.464 106.484 64.776C106.484 64.088 106.324 63.464 106.004 62.904C105.692 62.344 105.256 61.904 104.696 61.584C104.144 61.264 103.52 61.104 102.824 61.104C102.136 61.104 101.508 61.268 100.94 61.596C100.38 61.924 99.94 62.372 99.62 62.94C99.3 63.5 99.14 64.12 99.14 64.8C99.14 65.48 99.3 66.104 99.62 66.672C99.94 67.232 100.38 67.676 100.94 68.004C101.5 68.332 102.12 68.496 102.8 68.496ZM102.932 67.272C102.444 67.272 102.008 67.168 101.624 66.96C101.24 66.752 100.94 66.46 100.724 66.084C100.508 65.708 100.4 65.28 100.4 64.8C100.4 64.32 100.508 63.892 100.724 63.516C100.94 63.14 101.24 62.848 101.624 62.64C102.008 62.432 102.444 62.328 102.932 62.328C103.348 62.328 103.728 62.416 104.072 62.592C104.416 62.768 104.684 63.004 104.876 63.3L104.192 63.792C103.904 63.36 103.48 63.144 102.92 63.144C102.456 63.144 102.072 63.296 101.768 63.6C101.464 63.904 101.312 64.304 101.312 64.8C101.312 65.296 101.464 65.696 101.768 66C102.072 66.304 102.456 66.456 102.92 66.456C103.48 66.456 103.904 66.24 104.192 65.808L104.876 66.288C104.684 66.592 104.416 66.832 104.072 67.008C103.728 67.184 103.348 67.272 102.932 67.272ZM113.984 67.956V69H107.948V68.184L111.368 64.884C111.784 64.484 112.064 64.14 112.208 63.852C112.352 63.556 112.424 63.26 112.424 62.964C112.424 62.524 112.268 62.184 111.956 61.944C111.652 61.696 111.212 61.572 110.636 61.572C109.708 61.572 108.992 61.876 108.488 62.484L107.672 61.776C108 61.376 108.428 61.064 108.956 60.84C109.492 60.616 110.088 60.504 110.744 60.504C111.624 60.504 112.324 60.716 112.844 61.14C113.364 61.556 113.624 62.124 113.624 62.844C113.624 63.292 113.528 63.716 113.336 64.116C113.144 64.516 112.78 64.972 112.244 65.484L109.676 67.956H113.984ZM118.367 69.096C117.703 69.096 117.111 68.928 116.591 68.592C116.079 68.248 115.675 67.752 115.379 67.104C115.083 66.456 114.935 65.688 114.935 64.8C114.935 63.912 115.083 63.144 115.379 62.496C115.675 61.848 116.079 61.356 116.591 61.02C117.111 60.676 117.703 60.504 118.367 60.504C119.023 60.504 119.607 60.676 120.119 61.02C120.639 61.356 121.047 61.848 121.343 62.496C121.639 63.144 121.787 63.912 121.787 64.8C121.787 65.688 121.639 66.456 121.343 67.104C121.047 67.752 120.639 68.248 120.119 68.592C119.607 68.928 119.023 69.096 118.367 69.096ZM118.367 68.028C119.039 68.028 119.575 67.752 119.975 67.2C120.383 66.648 120.587 65.848 120.587 64.8C120.587 63.752 120.383 62.952 119.975 62.4C119.575 61.848 119.039 61.572 118.367 61.572C117.687 61.572 117.143 61.848 116.735 62.4C116.335 62.952 116.135 63.752 116.135 64.8C116.135 65.848 116.335 66.648 116.735 67.2C117.143 67.752 117.687 68.028 118.367 68.028ZM128.808 67.956V69H122.772V68.184L126.192 64.884C126.608 64.484 126.888 64.14 127.032 63.852C127.176 63.556 127.248 63.26 127.248 62.964C127.248 62.524 127.092 62.184 126.78 61.944C126.476 61.696 126.036 61.572 125.46 61.572C124.532 61.572 123.816 61.876 123.312 62.484L122.496 61.776C122.824 61.376 123.252 61.064 123.78 60.84C124.316 60.616 124.912 60.504 125.568 60.504C126.448 60.504 127.148 60.716 127.668 61.14C128.188 61.556 128.448 62.124 128.448 62.844C128.448 63.292 128.352 63.716 128.16 64.116C127.968 64.516 127.604 64.972 127.068 65.484L124.5 67.956H128.808ZM133.011 64.128C133.835 64.208 134.463 64.464 134.895 64.896C135.327 65.32 135.543 65.864 135.543 66.528C135.543 67.008 135.423 67.444 135.183 67.836C134.943 68.22 134.583 68.528 134.103 68.76C133.631 68.984 133.051 69.096 132.363 69.096C131.763 69.096 131.187 69.008 130.635 68.832C130.083 68.648 129.631 68.396 129.279 68.076L129.831 67.128C130.119 67.4 130.487 67.62 130.935 67.788C131.383 67.948 131.859 68.028 132.363 68.028C132.987 68.028 133.471 67.896 133.815 67.632C134.167 67.368 134.343 67.004 134.343 66.54C134.343 66.076 134.171 65.716 133.827 65.46C133.483 65.204 132.963 65.076 132.267 65.076H131.595V64.236L133.707 61.644H129.663V60.6H135.207V61.416L133.011 64.128ZM137.454 69.072C137.23 69.072 137.038 68.996 136.878 68.844C136.718 68.684 136.638 68.484 136.638 68.244C136.638 68.012 136.718 67.82 136.878 67.668C137.038 67.508 137.23 67.428 137.454 67.428C137.678 67.428 137.866 67.504 138.018 67.656C138.17 67.808 138.246 68.004 138.246 68.244C138.246 68.484 138.166 68.684 138.006 68.844C137.854 68.996 137.67 69.072 137.454 69.072Z" fill="#4D4D4D"/>
<defs>
<clipPath id="clip0_88_2">
<rect width="74" height="74" fill="white"/>
</clipPath>
</defs>
</svg>
