<svg width="156" height="217" viewBox="0 0 156 217" fill="none" xmlns="http://www.w3.org/2000/svg">
<g clip-path="url(#clip0_66_5)">
<path d="M81 -0.375C84 0 84 0 85.6719 1.19922C87.4772 3.647 87.3334 5.16298 87.25 8.1875C87.2242 9.26773 87.1984 10.348 87.1719 11.4609C86.996 15.0828 86.7546 18.6954 86.5 22.3125C86.0443 29.2039 85.7614 36.0949 85.625 43C85.568 44.4508 85.568 44.4508 85.5098 45.9309C85.4315 52.5766 86.6236 56.9176 91 62C102.522 72.4164 117.112 73.4483 131.854 73.6733C149.661 73.9795 149.661 73.9795 154.75 78.375C156 81 156 81 155.75 83.3125C155.502 83.8694 155.255 84.4262 155 85C150.467 85.9488 146.495 85.9657 141.875 85.5625C128.322 84.4008 111.553 83.3794 100 92C90.3392 100.845 86.4837 111.681 83.0619 124.036C82.4904 126.097 81.9057 128.155 81.3176 130.212C79.658 136.031 78.0336 141.859 76.4492 147.699C76.2301 148.489 76.0109 149.278 75.7852 150.092C75.2336 152.084 74.6999 154.081 74.168 156.078C72.8988 159.253 71.9999 160.416 69 162C66.375 161.875 66.375 161.875 64 161C61.9148 157.872 61.7398 157.042 61.6562 153.465C61.6266 152.572 61.597 151.679 61.5664 150.76C61.5445 149.828 61.5226 148.897 61.5 147.938C61.1385 133.02 58.8487 121.765 48 111C45.0694 108.704 41.9942 106.741 38.8125 104.812C37.5546 104.037 37.5546 104.037 36.2712 103.246C27.9986 98.2395 20.017 94.6227 10.5625 92.5C5.53388 91.3269 2.89457 90.3419 0 86C-0.5 83.375 -0.5 83.375 0 81C2.17946 78.2703 3.93401 77.5299 7.32422 76.8945C8.60873 76.6327 8.60873 76.6327 9.91919 76.3655C11.2895 76.0918 11.2895 76.0918 12.6875 75.8125C25.7129 72.9634 37.9071 67.9688 48 59C48.8469 58.2904 48.8469 58.2904 49.7109 57.5664C63.3314 45.2094 69.4479 27.0527 73.2646 9.61279C73.4493 8.79698 73.634 7.98116 73.8242 7.14062C73.9798 6.41392 74.1354 5.68721 74.2957 4.93848C75.6247 1.28062 77.1707 0.103661 81 -0.375ZM70 57C68.5471 58.8002 67.1134 60.6159 65.6875 62.4375C57.5847 72.4164 47.1467 78.8535 36 85C39.5518 87.9741 43.1854 90.3623 47.1875 92.6875C56.0015 97.9766 63.4336 104.279 69 113C72.019 111.491 72.1044 109.267 73.1875 106.125C76.8919 96.17 82.4877 87.5123 90 80C89.0216 79.273 89.0216 79.273 88.0234 78.5312C80.0119 72.3867 74.5591 66.491 71 57C70.67 57 70.34 57 70 57Z" fill="#80ACC7"/>
<path d="M125 135C126.32 135 127.64 135 129 135C129.958 137.874 130.067 139.36 129.922 142.309C129.883 143.553 129.883 143.553 129.844 144.822C129.781 146.562 129.703 148.302 129.609 150.041C129.405 155.306 129.405 155.306 132.328 159.535C137.412 162.323 142.616 162.543 148.283 162.986C150.41 163.207 150.41 163.207 154 164C155.496 166.074 155.496 166.074 156 168C154.831 168.049 153.662 168.098 152.457 168.148C150.909 168.224 149.361 168.299 147.812 168.375C147.044 168.406 146.275 168.437 145.482 168.469C139.48 168.742 139.48 168.742 134 171C129.872 175.847 128.43 181.366 126.75 187.375C126.482 188.302 126.214 189.229 125.938 190.184C125.282 192.453 124.637 194.725 124 197C122.68 197 121.36 197 120 197C119.902 196.131 119.804 195.262 119.703 194.367C118.751 185.371 118.751 185.371 114 178C108.321 174.358 102.255 171.502 96 169C96 167.68 96 166.36 96 165C97.251 164.706 97.251 164.706 98.5273 164.406C106.624 162.255 112.773 159.744 118 153C120.076 149.114 121.613 145.176 123 141C123.373 139.889 123.745 138.778 124.129 137.633C124.56 136.33 124.56 136.33 125 135ZM116 167C116 167.66 116 168.32 116 169C117.98 169.99 119.96 170.98 122 172C123.32 170.02 124.64 168.04 126 166C124.625 164.458 124.625 164.458 123 163C119.82 163 118.292 164.95 116 167Z" fill="#CC4530"/>
<path d="M36 178C36.99 178 37.98 178 39 178C38.9768 178.831 38.9536 179.663 38.9297 180.52C38.9116 181.606 38.8936 182.693 38.875 183.812C38.8518 184.891 38.8286 185.97 38.8047 187.082C38.7698 190.194 38.7698 190.194 41 193C44.1081 193.805 44.1081 193.805 47.625 194.188C49.4078 194.425 49.4078 194.425 51.2266 194.668C52.5994 194.832 52.5994 194.832 54 195C54.495 196.485 54.495 196.485 55 198C54.108 198.052 53.2159 198.103 52.2969 198.156C45.7689 198.537 45.7689 198.537 40.3164 201.633C39.2517 203.746 38.5793 205.707 38 208C37.7821 208.761 37.5643 209.521 37.3398 210.305C36.8338 212.188 36.4086 214.093 36 216C34.68 216 33.36 216 32 216C31.9136 215.325 31.8273 214.649 31.7383 213.953C30.8968 208.264 30.8968 208.264 27.8125 203.562C24.5994 201.777 21.4222 200.342 18 199C18 198.01 18 197.02 18 196C18.8875 195.78 18.8875 195.78 19.793 195.555C25.3581 193.975 29.0091 192.146 32 187C33.4662 184.048 34.7821 181.062 36 178ZM33 197C33.33 197.66 33.66 198.32 34 199C34.33 198.34 34.66 197.68 35 197C34.34 197 33.68 197 33 197Z" fill="black"/>
</g>
<defs>
<clipPath id="clip0_66_5">
<rect width="156" height="217" fill="white"/>
</clipPath>
</defs>
</svg>
