<svg width="597" height="247" viewBox="0 0 597 247" fill="none" xmlns="http://www.w3.org/2000/svg">
<path d="M237.155 33.616C231.395 30.288 225.219 28.144 218.627 27.184V82H203.075V27.184C196.483 28.144 190.275 30.288 184.451 33.616L179.171 22C183.779 19.248 188.771 17.168 194.147 15.76C199.523 14.352 205.059 13.648 210.755 13.648C216.515 13.648 222.083 14.352 227.459 15.76C232.899 17.168 237.891 19.248 242.435 22L237.155 33.616ZM285.248 55.024C291.328 57.072 294.368 61.168 294.368 67.312C294.368 71.984 292.608 75.6 289.088 78.16C285.568 80.72 280.32 82 273.344 82H245.792V30.352H272.192C278.656 30.352 283.712 31.536 287.36 33.904C291.008 36.208 292.832 39.472 292.832 43.696C292.832 46.256 292.16 48.528 290.816 50.512C289.536 52.432 287.68 53.936 285.248 55.024ZM259.52 51.568H270.848C276.096 51.568 278.72 49.712 278.72 46C278.72 42.352 276.096 40.528 270.848 40.528H259.52V51.568ZM272.096 71.824C277.6 71.824 280.352 69.936 280.352 66.16C280.352 64.176 279.712 62.736 278.432 61.84C277.152 60.88 275.136 60.4 272.384 60.4H259.52V71.824H272.096ZM325.863 82.768C320.423 82.768 315.527 81.648 311.175 79.408C306.887 77.104 303.527 73.936 301.095 69.904C298.663 65.872 297.447 61.296 297.447 56.176C297.447 51.056 298.663 46.48 301.095 42.448C303.527 38.416 306.887 35.28 311.175 33.04C315.527 30.736 320.423 29.584 325.863 29.584C331.303 29.584 336.167 30.736 340.455 33.04C344.743 35.28 348.103 38.416 350.535 42.448C352.967 46.48 354.183 51.056 354.183 56.176C354.183 61.296 352.967 65.872 350.535 69.904C348.103 73.936 344.743 77.104 340.455 79.408C336.167 81.648 331.303 82.768 325.863 82.768ZM325.863 70.48C329.703 70.48 332.839 69.2 335.271 66.64C337.767 64.016 339.015 60.528 339.015 56.176C339.015 51.824 337.767 48.368 335.271 45.808C332.839 43.184 329.703 41.872 325.863 41.872C322.023 41.872 318.855 43.184 316.359 45.808C313.863 48.368 312.615 51.824 312.615 56.176C312.615 60.528 313.863 64.016 316.359 66.64C318.855 69.2 322.023 70.48 325.863 70.48ZM411.619 30.352V82H397.315V75.952C395.395 78.192 393.027 79.888 390.211 81.04C387.459 82.192 384.515 82.768 381.379 82.768C374.595 82.768 369.187 80.816 365.155 76.912C361.187 73.008 359.203 67.216 359.203 59.536V30.352H374.179V57.328C374.179 65.648 377.667 69.808 384.643 69.808C388.291 69.808 391.203 68.656 393.379 66.352C395.555 63.984 396.643 60.496 396.643 55.888V30.352H411.619ZM385.027 24.784C373.763 24.784 368.099 19.824 368.035 9.904H377.827C377.891 12.144 378.499 13.904 379.651 15.184C380.867 16.4 382.627 17.008 384.931 17.008C387.235 17.008 388.995 16.4 390.211 15.184C391.491 13.904 392.131 12.144 392.131 9.904H402.115C402.051 19.824 396.355 24.784 385.027 24.784Z" fill="black"/>
<path d="M38.4724 109.648C44.6804 109.648 50.0884 110.864 54.6964 113.296C59.3044 115.728 62.8884 119.312 65.4484 124.048C68.0084 128.784 69.2884 134.512 69.2884 141.232V178H53.7364V161.872H23.0164V178H7.65637V141.232C7.65637 134.512 8.93637 128.784 11.4964 124.048C14.0564 119.312 17.6404 115.728 22.2484 113.296C26.8564 110.864 32.2644 109.648 38.4724 109.648ZM53.7364 149.392V139.792C53.7364 134.224 52.3604 130.032 49.6084 127.216C46.8564 124.336 43.1124 122.896 38.3764 122.896C33.5764 122.896 29.8004 124.336 27.0484 127.216C24.3604 130.032 23.0164 134.224 23.0164 139.792V149.392H53.7364ZM80.0306 126.352H94.9106V146.512H117.375V126.352H132.351V178H117.375V158.704H94.9106V178H80.0306V126.352ZM184.223 138.64H157.727V178H142.847V126.352H184.223V138.64ZM234.105 126.352V178H219.129V138.64H202.809L202.329 147.76C202.073 154.544 201.433 160.176 200.409 164.656C199.385 169.136 197.721 172.656 195.417 175.216C193.113 177.776 189.913 179.056 185.817 179.056C183.641 179.056 181.049 178.672 178.041 177.904L178.809 165.616C179.833 165.744 180.569 165.808 181.017 165.808C183.257 165.808 184.921 165.008 186.009 163.408C187.161 161.744 187.929 159.664 188.313 157.168C188.697 154.608 188.985 151.248 189.177 147.088L189.945 126.352H234.105ZM295.643 126.352V178H281.339V171.952C279.419 174.192 277.051 175.888 274.235 177.04C271.483 178.192 268.539 178.768 265.403 178.768C258.619 178.768 253.211 176.816 249.179 172.912C245.211 169.008 243.227 163.216 243.227 155.536V126.352H258.203V153.328C258.203 161.648 261.691 165.808 268.667 165.808C272.315 165.808 275.227 164.656 277.403 162.352C279.579 159.984 280.667 156.496 280.667 151.888V126.352H295.643ZM357.053 126.352V178H342.749V171.952C340.829 174.192 338.461 175.888 335.645 177.04C332.893 178.192 329.949 178.768 326.813 178.768C320.029 178.768 314.621 176.816 310.589 172.912C306.621 169.008 304.637 163.216 304.637 155.536V126.352H319.613V153.328C319.613 161.648 323.101 165.808 330.077 165.808C333.725 165.808 336.637 164.656 338.813 162.352C340.989 159.984 342.077 156.496 342.077 151.888V126.352H357.053ZM330.461 120.784C319.197 120.784 313.533 115.824 313.469 105.904H323.261C323.325 108.144 323.933 109.904 325.085 111.184C326.301 112.4 328.061 113.008 330.365 113.008C332.669 113.008 334.429 112.4 335.645 111.184C336.925 109.904 337.565 108.144 337.565 105.904H347.549C347.485 115.824 341.789 120.784 330.461 120.784ZM392.063 178.768C386.559 178.768 381.599 177.648 377.183 175.408C372.831 173.104 369.407 169.936 366.911 165.904C364.479 161.872 363.263 157.296 363.263 152.176C363.263 147.056 364.479 142.48 366.911 138.448C369.407 134.416 372.831 131.28 377.183 129.04C381.599 126.736 386.559 125.584 392.063 125.584C397.503 125.584 402.239 126.736 406.271 129.04C410.367 131.28 413.343 134.512 415.199 138.736L403.583 144.976C400.895 140.24 397.023 137.872 391.967 137.872C388.063 137.872 384.831 139.152 382.271 141.712C379.711 144.272 378.431 147.76 378.431 152.176C378.431 156.592 379.711 160.08 382.271 162.64C384.831 165.2 388.063 166.48 391.967 166.48C397.087 166.48 400.959 164.112 403.583 159.376L415.199 165.712C413.343 169.808 410.367 173.008 406.271 175.312C402.239 177.616 397.503 178.768 392.063 178.768ZM443.211 158.416H435.435V178H420.459V126.352H435.435V146.416H443.499L457.515 126.352H473.451L455.403 151.12L474.699 178H457.035L443.211 158.416ZM528.252 126.352V178H513.948V171.952C512.028 174.192 509.66 175.888 506.844 177.04C504.092 178.192 501.148 178.768 498.012 178.768C491.228 178.768 485.82 176.816 481.788 172.912C477.82 169.008 475.836 163.216 475.836 155.536V126.352H490.812V153.328C490.812 161.648 494.3 165.808 501.276 165.808C504.924 165.808 507.836 164.656 510.012 162.352C512.188 159.984 513.276 156.496 513.276 151.888V126.352H528.252ZM589.662 126.352V178H575.358V171.952C573.438 174.192 571.07 175.888 568.254 177.04C565.502 178.192 562.558 178.768 559.422 178.768C552.638 178.768 547.23 176.816 543.198 172.912C539.23 169.008 537.246 163.216 537.246 155.536V126.352H552.222V153.328C552.222 161.648 555.71 165.808 562.686 165.808C566.334 165.808 569.246 164.656 571.422 162.352C573.598 159.984 574.686 156.496 574.686 151.888V126.352H589.662ZM563.07 120.784C551.806 120.784 546.142 115.824 546.078 105.904H555.87C555.934 108.144 556.542 109.904 557.694 111.184C558.91 112.4 560.67 113.008 562.974 113.008C565.278 113.008 567.038 112.4 568.254 111.184C569.534 109.904 570.174 108.144 570.174 105.904H580.158C580.094 115.824 574.398 120.784 563.07 120.784Z" fill="#CD4631"/>
<path d="M220.743 228.8V240H219.143V235.008H212.711V240H211.111V228.8H212.711V233.616H219.143V228.8H220.743ZM231.948 231.52V240H230.476V238.656C230.135 239.125 229.703 239.483 229.18 239.728C228.658 239.973 228.082 240.096 227.452 240.096C226.631 240.096 225.895 239.915 225.244 239.552C224.594 239.189 224.082 238.683 223.708 238.032C223.346 237.371 223.164 236.613 223.164 235.76C223.164 234.907 223.346 234.155 223.708 233.504C224.082 232.853 224.594 232.347 225.244 231.984C225.895 231.621 226.631 231.44 227.452 231.44C228.06 231.44 228.62 231.557 229.132 231.792C229.644 232.016 230.071 232.352 230.412 232.8V231.52H231.948ZM227.58 238.752C228.114 238.752 228.599 238.629 229.036 238.384C229.474 238.128 229.815 237.776 230.06 237.328C230.306 236.869 230.428 236.347 230.428 235.76C230.428 235.173 230.306 234.656 230.06 234.208C229.815 233.749 229.474 233.397 229.036 233.152C228.599 232.907 228.114 232.784 227.58 232.784C227.036 232.784 226.546 232.907 226.108 233.152C225.682 233.397 225.34 233.749 225.084 234.208C224.839 234.656 224.716 235.173 224.716 235.76C224.716 236.347 224.839 236.869 225.084 237.328C225.34 237.776 225.682 238.128 226.108 238.384C226.546 238.629 227.036 238.752 227.58 238.752ZM241.654 231.52V240H240.118V236.576C239.201 237.003 238.289 237.216 237.382 237.216C236.326 237.216 235.51 236.971 234.934 236.48C234.358 235.989 234.07 235.253 234.07 234.272V231.52H235.606V234.176C235.606 234.763 235.788 235.205 236.15 235.504C236.524 235.803 237.041 235.952 237.702 235.952C238.449 235.952 239.254 235.765 240.118 235.392V231.52H241.654ZM244.636 231.52H246.172V235.12H251.004V231.52H252.54V240H251.004V236.448H246.172V240H244.636V231.52ZM263.255 231.52V240H261.783V238.752C261.474 239.179 261.068 239.509 260.567 239.744C260.066 239.979 259.516 240.096 258.919 240.096C257.788 240.096 256.898 239.787 256.247 239.168C255.596 238.539 255.271 237.616 255.271 236.4V231.52H256.807V236.224C256.807 237.045 257.004 237.669 257.399 238.096C257.794 238.512 258.359 238.72 259.095 238.72C259.906 238.72 260.546 238.475 261.015 237.984C261.484 237.493 261.719 236.8 261.719 235.904V231.52H263.255ZM278.399 231.52V240H276.863V232.864H272.079V240H270.543V231.52H278.399ZM285.403 231.44C286.256 231.44 287.008 231.621 287.659 231.984C288.32 232.347 288.827 232.859 289.179 233.52C289.541 234.171 289.723 234.923 289.723 235.776C289.723 236.619 289.547 237.371 289.195 238.032C288.843 238.683 288.352 239.189 287.723 239.552C287.093 239.915 286.373 240.096 285.563 240.096C284.923 240.096 284.347 239.984 283.835 239.76C283.323 239.525 282.896 239.189 282.555 238.752V243.104H281.003V235.792C281.003 234.939 281.184 234.181 281.547 233.52C281.92 232.859 282.437 232.347 283.099 231.984C283.771 231.621 284.539 231.44 285.403 231.44ZM285.355 238.752C285.899 238.752 286.389 238.629 286.827 238.384C287.264 238.128 287.6 237.776 287.835 237.328C288.08 236.869 288.203 236.352 288.203 235.776C288.203 235.2 288.08 234.688 287.835 234.24C287.6 233.781 287.264 233.424 286.827 233.168C286.4 232.912 285.909 232.784 285.355 232.784C284.512 232.784 283.829 233.061 283.307 233.616C282.784 234.16 282.523 234.875 282.523 235.76C282.523 236.347 282.64 236.869 282.875 237.328C283.12 237.776 283.456 238.128 283.883 238.384C284.309 238.629 284.8 238.752 285.355 238.752ZM298.483 231.52V240H297.107V237.312H294.643H294.467L292.611 240H290.963L293.027 237.104C292.387 236.912 291.897 236.597 291.555 236.16C291.214 235.712 291.043 235.157 291.043 234.496C291.043 233.525 291.374 232.789 292.035 232.288C292.697 231.776 293.609 231.52 294.771 231.52H298.483ZM292.611 234.544C292.611 235.109 292.787 235.531 293.139 235.808C293.502 236.075 294.041 236.208 294.755 236.208H297.107V232.864H294.819C293.347 232.864 292.611 233.424 292.611 234.544ZM311.256 231.52V240H309.864V233.808L306.696 239.04H306.024L302.888 233.792V240H301.48V231.52H303.064L306.392 237.248L309.816 231.52H311.256ZM317.878 240.096C317.035 240.096 316.278 239.909 315.606 239.536C314.934 239.163 314.406 238.651 314.022 238C313.648 237.339 313.462 236.592 313.462 235.76C313.462 234.928 313.648 234.187 314.022 233.536C314.406 232.875 314.934 232.363 315.606 232C316.278 231.627 317.035 231.44 317.878 231.44C318.72 231.44 319.472 231.627 320.134 232C320.806 232.363 321.328 232.875 321.702 233.536C322.086 234.187 322.278 234.928 322.278 235.76C322.278 236.592 322.086 237.339 321.702 238C321.328 238.651 320.806 239.163 320.134 239.536C319.472 239.909 318.72 240.096 317.878 240.096ZM317.878 238.752C318.422 238.752 318.907 238.629 319.334 238.384C319.771 238.128 320.112 237.776 320.358 237.328C320.603 236.869 320.726 236.347 320.726 235.76C320.726 235.173 320.603 234.656 320.358 234.208C320.112 233.749 319.771 233.397 319.334 233.152C318.907 232.907 318.422 232.784 317.878 232.784C317.334 232.784 316.843 232.907 316.406 233.152C315.979 233.397 315.638 233.749 315.382 234.208C315.136 234.656 315.014 235.173 315.014 235.76C315.014 236.347 315.136 236.869 315.382 237.328C315.638 237.776 315.979 238.128 316.406 238.384C316.843 238.629 317.334 238.752 317.878 238.752ZM332.489 240.096C331.625 240.096 330.851 239.909 330.169 239.536C329.497 239.163 328.969 238.651 328.585 238C328.201 237.339 328.009 236.592 328.009 235.76C328.009 234.928 328.201 234.187 328.585 233.536C328.969 232.875 329.497 232.363 330.169 232C330.851 231.627 331.625 231.44 332.489 231.44C333.257 231.44 333.939 231.595 334.537 231.904C335.145 232.213 335.614 232.661 335.945 233.248L334.777 234C334.51 233.595 334.179 233.291 333.785 233.088C333.39 232.885 332.953 232.784 332.473 232.784C331.918 232.784 331.417 232.907 330.969 233.152C330.531 233.397 330.185 233.749 329.929 234.208C329.683 234.656 329.561 235.173 329.561 235.76C329.561 236.357 329.683 236.885 329.929 237.344C330.185 237.792 330.531 238.139 330.969 238.384C331.417 238.629 331.918 238.752 332.473 238.752C332.953 238.752 333.39 238.651 333.785 238.448C334.179 238.245 334.51 237.941 334.777 237.536L335.945 238.272C335.614 238.859 335.145 239.312 334.537 239.632C333.939 239.941 333.257 240.096 332.489 240.096ZM341.6 238.752C342.614 238.752 343.43 238.411 344.048 237.728L344.88 238.72C344.507 239.168 344.032 239.509 343.456 239.744C342.891 239.979 342.256 240.096 341.552 240.096C340.656 240.096 339.862 239.915 339.168 239.552C338.475 239.179 337.936 238.661 337.552 238C337.179 237.339 336.992 236.592 336.992 235.76C336.992 234.939 337.174 234.197 337.536 233.536C337.91 232.875 338.416 232.363 339.056 232C339.707 231.627 340.438 231.44 341.248 231.44C342.016 231.44 342.715 231.616 343.344 231.968C343.974 232.309 344.475 232.795 344.848 233.424C345.222 234.053 345.414 234.779 345.424 235.6L338.688 236.912C338.902 237.499 339.259 237.952 339.76 238.272C340.272 238.592 340.886 238.752 341.6 238.752ZM341.248 232.736C340.715 232.736 340.235 232.859 339.808 233.104C339.392 233.349 339.067 233.696 338.832 234.144C338.598 234.581 338.48 235.093 338.48 235.68V235.84L343.904 234.816C343.766 234.197 343.456 233.696 342.976 233.312C342.496 232.928 341.92 232.736 341.248 232.736ZM355.333 231.52V240H353.861V238.752C353.552 239.179 353.147 239.509 352.645 239.744C352.144 239.979 351.595 240.096 350.997 240.096C349.867 240.096 348.976 239.787 348.325 239.168C347.675 238.539 347.349 237.616 347.349 236.4V231.52H348.885V236.224C348.885 237.045 349.083 237.669 349.477 238.096C349.872 238.512 350.437 238.72 351.173 238.72C351.984 238.72 352.624 238.475 353.093 237.984C353.563 237.493 353.797 236.8 353.797 235.904V231.52H355.333ZM351.333 230.416C350.544 230.416 349.931 230.229 349.493 229.856C349.056 229.472 348.832 228.923 348.821 228.208H349.861C349.872 228.603 350.005 228.923 350.261 229.168C350.528 229.403 350.88 229.52 351.317 229.52C351.755 229.52 352.107 229.403 352.373 229.168C352.64 228.923 352.779 228.603 352.789 228.208H353.861C353.851 228.923 353.621 229.472 353.173 229.856C352.725 230.229 352.112 230.416 351.333 230.416ZM365.092 231.52V240H363.556V236.576C362.639 237.003 361.727 237.216 360.82 237.216C359.764 237.216 358.948 236.971 358.372 236.48C357.796 235.989 357.508 235.253 357.508 234.272V231.52H359.044V234.176C359.044 234.763 359.225 235.205 359.588 235.504C359.961 235.803 360.479 235.952 361.14 235.952C361.887 235.952 362.692 235.765 363.556 235.392V231.52H365.092ZM376.042 231.52V240H374.57V238.656C374.229 239.125 373.797 239.483 373.274 239.728C372.751 239.973 372.175 240.096 371.546 240.096C370.725 240.096 369.989 239.915 369.338 239.552C368.687 239.189 368.175 238.683 367.802 238.032C367.439 237.371 367.258 236.613 367.258 235.76C367.258 234.907 367.439 234.155 367.802 233.504C368.175 232.853 368.687 232.347 369.338 231.984C369.989 231.621 370.725 231.44 371.546 231.44C372.154 231.44 372.714 231.557 373.226 231.792C373.738 232.016 374.165 232.352 374.506 232.8V231.52H376.042ZM371.674 238.752C372.207 238.752 372.693 238.629 373.13 238.384C373.567 238.128 373.909 237.776 374.154 237.328C374.399 236.869 374.522 236.347 374.522 235.76C374.522 235.173 374.399 234.656 374.154 234.208C373.909 233.749 373.567 233.397 373.13 233.152C372.693 232.907 372.207 232.784 371.674 232.784C371.13 232.784 370.639 232.907 370.202 233.152C369.775 233.397 369.434 233.749 369.178 234.208C368.933 234.656 368.81 235.173 368.81 235.76C368.81 236.347 368.933 236.869 369.178 237.328C369.434 237.776 369.775 238.128 370.202 238.384C370.639 238.629 371.13 238.752 371.674 238.752ZM382.676 240.096C381.812 240.096 381.039 239.909 380.356 239.536C379.684 239.163 379.156 238.651 378.772 238C378.388 237.339 378.196 236.592 378.196 235.76C378.196 234.928 378.388 234.187 378.772 233.536C379.156 232.875 379.684 232.363 380.356 232C381.039 231.627 381.812 231.44 382.676 231.44C383.444 231.44 384.127 231.595 384.724 231.904C385.332 232.213 385.802 232.661 386.132 233.248L384.964 234C384.698 233.595 384.367 233.291 383.972 233.088C383.578 232.885 383.14 232.784 382.66 232.784C382.106 232.784 381.604 232.907 381.156 233.152C380.719 233.397 380.372 233.749 380.116 234.208C379.871 234.656 379.748 235.173 379.748 235.76C379.748 236.357 379.871 236.885 380.116 237.344C380.372 237.792 380.719 238.139 381.156 238.384C381.604 238.629 382.106 238.752 382.66 238.752C383.14 238.752 383.578 238.651 383.972 238.448C384.367 238.245 384.698 237.941 384.964 237.536L386.132 238.272C385.802 238.859 385.332 239.312 384.724 239.632C384.127 239.941 383.444 240.096 382.676 240.096Z" fill="#4D4D4D"/>
</svg>
