<svg width="241" height="13" viewBox="0 0 241 13" fill="none" xmlns="http://www.w3.org/2000/svg">
<path d="M4.8 10.036C4.016 10.036 3.3 9.848 2.652 9.472C2.012 9.096 1.504 8.584 1.128 7.936C0.76 7.288 0.576 6.576 0.576 5.8C0.576 5.024 0.76 4.312 1.128 3.664C1.504 3.016 2.016 2.504 2.664 2.128C3.312 1.752 4.032 1.564 4.824 1.564C5.616 1.564 6.332 1.748 6.972 2.116C7.62 2.484 8.128 2.992 8.496 3.64C8.864 4.28 9.048 4.992 9.048 5.776C9.048 6.56 8.86 7.28 8.484 7.936C8.108 8.584 7.596 9.096 6.948 9.472C6.3 9.848 5.584 10.036 4.8 10.036ZM4.8 9.496C5.488 9.496 6.112 9.332 6.672 9.004C7.232 8.676 7.672 8.228 7.992 7.66C8.32 7.092 8.484 6.464 8.484 5.776C8.484 5.088 8.324 4.464 8.004 3.904C7.692 3.344 7.256 2.904 6.696 2.584C6.144 2.264 5.52 2.104 4.824 2.104C4.136 2.104 3.508 2.268 2.94 2.596C2.38 2.924 1.94 3.372 1.62 3.94C1.3 4.5 1.14 5.12 1.14 5.8C1.14 6.48 1.3 7.104 1.62 7.672C1.94 8.232 2.38 8.676 2.94 9.004C3.5 9.332 4.12 9.496 4.8 9.496ZM4.932 8.272C4.444 8.272 4.008 8.168 3.624 7.96C3.24 7.752 2.94 7.46 2.724 7.084C2.508 6.708 2.4 6.28 2.4 5.8C2.4 5.32 2.508 4.892 2.724 4.516C2.94 4.14 3.24 3.848 3.624 3.64C4.008 3.432 4.444 3.328 4.932 3.328C5.348 3.328 5.728 3.416 6.072 3.592C6.416 3.768 6.684 4.004 6.876 4.3L6.192 4.792C5.904 4.36 5.48 4.144 4.92 4.144C4.456 4.144 4.072 4.296 3.768 4.6C3.464 4.904 3.312 5.304 3.312 5.8C3.312 6.296 3.464 6.696 3.768 7C4.072 7.304 4.456 7.456 4.92 7.456C5.48 7.456 5.904 7.24 6.192 6.808L6.876 7.288C6.684 7.592 6.416 7.832 6.072 8.008C5.728 8.184 5.348 8.272 4.932 8.272ZM15.9839 8.956V10H9.94791V9.184L13.3679 5.884C13.7839 5.484 14.0639 5.14 14.2079 4.852C14.3519 4.556 14.4239 4.26 14.4239 3.964C14.4239 3.524 14.2679 3.184 13.9559 2.944C13.6519 2.696 13.2119 2.572 12.6359 2.572C11.7079 2.572 10.9919 2.876 10.4879 3.484L9.67191 2.776C9.99991 2.376 10.4279 2.064 10.9559 1.84C11.4919 1.616 12.0879 1.504 12.7439 1.504C13.6239 1.504 14.3239 1.716 14.8439 2.14C15.3639 2.556 15.6239 3.124 15.6239 3.844C15.6239 4.292 15.5279 4.716 15.3359 5.116C15.1439 5.516 14.7799 5.972 14.2439 6.484L11.6759 8.956H15.9839ZM20.3674 10.096C19.7034 10.096 19.1114 9.928 18.5914 9.592C18.0794 9.248 17.6754 8.752 17.3794 8.104C17.0834 7.456 16.9354 6.688 16.9354 5.8C16.9354 4.912 17.0834 4.144 17.3794 3.496C17.6754 2.848 18.0794 2.356 18.5914 2.02C19.1114 1.676 19.7034 1.504 20.3674 1.504C21.0234 1.504 21.6074 1.676 22.1194 2.02C22.6394 2.356 23.0474 2.848 23.3434 3.496C23.6394 4.144 23.7874 4.912 23.7874 5.8C23.7874 6.688 23.6394 7.456 23.3434 8.104C23.0474 8.752 22.6394 9.248 22.1194 9.592C21.6074 9.928 21.0234 10.096 20.3674 10.096ZM20.3674 9.028C21.0394 9.028 21.5754 8.752 21.9754 8.2C22.3834 7.648 22.5874 6.848 22.5874 5.8C22.5874 4.752 22.3834 3.952 21.9754 3.4C21.5754 2.848 21.0394 2.572 20.3674 2.572C19.6874 2.572 19.1434 2.848 18.7354 3.4C18.3354 3.952 18.1354 4.752 18.1354 5.8C18.1354 6.848 18.3354 7.648 18.7354 8.2C19.1434 8.752 19.6874 9.028 20.3674 9.028ZM30.8081 8.956V10H24.7721V9.184L28.1921 5.884C28.6081 5.484 28.8881 5.14 29.0321 4.852C29.1761 4.556 29.2481 4.26 29.2481 3.964C29.2481 3.524 29.0921 3.184 28.7801 2.944C28.4761 2.696 28.0361 2.572 27.4601 2.572C26.5321 2.572 25.8161 2.876 25.3121 3.484L24.4961 2.776C24.8241 2.376 25.2521 2.064 25.7801 1.84C26.3161 1.616 26.9121 1.504 27.5681 1.504C28.4481 1.504 29.1481 1.716 29.6681 2.14C30.1881 2.556 30.4481 3.124 30.4481 3.844C30.4481 4.292 30.3521 4.716 30.1601 5.116C29.9681 5.516 29.6041 5.972 29.0681 6.484L26.5001 8.956H30.8081ZM35.0108 5.128C35.8348 5.208 36.4628 5.464 36.8948 5.896C37.3268 6.32 37.5428 6.864 37.5428 7.528C37.5428 8.008 37.4228 8.444 37.1828 8.836C36.9428 9.22 36.5828 9.528 36.1028 9.76C35.6308 9.984 35.0508 10.096 34.3628 10.096C33.7628 10.096 33.1868 10.008 32.6348 9.832C32.0828 9.648 31.6308 9.396 31.2788 9.076L31.8308 8.128C32.1188 8.4 32.4868 8.62 32.9348 8.788C33.3828 8.948 33.8588 9.028 34.3628 9.028C34.9868 9.028 35.4708 8.896 35.8148 8.632C36.1668 8.368 36.3428 8.004 36.3428 7.54C36.3428 7.076 36.1708 6.716 35.8268 6.46C35.4828 6.204 34.9628 6.076 34.2668 6.076H33.5948V5.236L35.7068 2.644H31.6628V1.6H37.2068V2.416L35.0108 5.128ZM39.4539 10.072C39.2299 10.072 39.0379 9.996 38.8779 9.844C38.7179 9.684 38.6379 9.484 38.6379 9.244C38.6379 9.012 38.7179 8.82 38.8779 8.668C39.0379 8.508 39.2299 8.428 39.4539 8.428C39.6779 8.428 39.8659 8.504 40.0179 8.656C40.1699 8.808 40.2459 9.004 40.2459 9.244C40.2459 9.484 40.1659 9.684 40.0059 9.844C39.8539 9.996 39.6699 10.072 39.4539 10.072ZM48.8153 1.504C49.9353 1.504 50.8193 1.832 51.4673 2.488C52.1153 3.136 52.4393 4.068 52.4393 5.284V10H51.2393V7.684H46.3913V10H45.2153V5.284C45.2153 4.068 45.5393 3.136 46.1873 2.488C46.8353 1.832 47.7113 1.504 48.8153 1.504ZM51.2393 6.64V5.176C51.2393 4.32 51.0233 3.672 50.5913 3.232C50.1673 2.792 49.5753 2.572 48.8153 2.572C48.0553 2.572 47.4593 2.792 47.0273 3.232C46.6033 3.672 46.3913 4.32 46.3913 5.176V6.64H51.2393ZM56.649 10.072C56.033 10.072 55.557 9.904 55.221 9.568C54.885 9.224 54.717 8.744 54.717 8.128V1.096H55.869V8.032C55.869 8.376 55.949 8.64 56.109 8.824C56.277 9.008 56.525 9.1 56.853 9.1C57.053 9.1 57.241 9.06 57.417 8.98L57.477 9.928C57.213 10.024 56.937 10.072 56.649 10.072ZM60.5045 10.072C59.8885 10.072 59.4125 9.904 59.0765 9.568C58.7405 9.224 58.5725 8.744 58.5725 8.128V1.096H59.7245V8.032C59.7245 8.376 59.8045 8.64 59.9645 8.824C60.1325 9.008 60.3805 9.1 60.7085 9.1C60.9085 9.1 61.0965 9.06 61.2725 8.98L61.3325 9.928C61.0685 10.024 60.7925 10.072 60.5045 10.072ZM71.4346 10L69.6226 7.42C69.3986 7.436 69.2226 7.444 69.0946 7.444H67.0186V10H65.8186V1.6H69.0946C70.1826 1.6 71.0386 1.86 71.6626 2.38C72.2866 2.9 72.5986 3.616 72.5986 4.528C72.5986 5.176 72.4386 5.728 72.1186 6.184C71.7986 6.64 71.3426 6.972 70.7506 7.18L72.7426 10H71.4346ZM69.0586 6.424C69.8186 6.424 70.3986 6.26 70.7986 5.932C71.1986 5.604 71.3986 5.136 71.3986 4.528C71.3986 3.92 71.1986 3.456 70.7986 3.136C70.3986 2.808 69.8186 2.644 69.0586 2.644H67.0186V6.424H69.0586ZM74.3693 3.64H75.5213V10H74.3693V3.64ZM74.9453 2.416C74.7213 2.416 74.5333 2.344 74.3813 2.2C74.2373 2.056 74.1653 1.88 74.1653 1.672C74.1653 1.464 74.2373 1.288 74.3813 1.144C74.5333 0.992 74.7213 0.916 74.9453 0.916C75.1693 0.916 75.3533 0.988 75.4973 1.132C75.6493 1.268 75.7253 1.44 75.7253 1.648C75.7253 1.864 75.6493 2.048 75.4973 2.2C75.3533 2.344 75.1693 2.416 74.9453 2.416ZM83.8049 3.64V9.136C83.8049 10.248 83.5289 11.068 82.9769 11.596C82.4249 12.132 81.6009 12.4 80.5049 12.4C79.9049 12.4 79.3329 12.316 78.7889 12.148C78.2449 11.988 77.8049 11.756 77.4689 11.452L78.0209 10.564C78.3169 10.82 78.6809 11.02 79.1129 11.164C79.5529 11.316 80.0049 11.392 80.4689 11.392C81.2129 11.392 81.7609 11.216 82.1129 10.864C82.4729 10.512 82.6529 9.976 82.6529 9.256V8.752C82.3809 9.08 82.0449 9.328 81.6449 9.496C81.2529 9.656 80.8249 9.736 80.3609 9.736C79.7529 9.736 79.2009 9.608 78.7049 9.352C78.2169 9.088 77.8329 8.724 77.5529 8.26C77.2729 7.788 77.1329 7.252 77.1329 6.652C77.1329 6.052 77.2729 5.52 77.5529 5.056C77.8329 4.584 78.2169 4.22 78.7049 3.964C79.2009 3.708 79.7529 3.58 80.3609 3.58C80.8409 3.58 81.2849 3.668 81.6929 3.844C82.1089 4.02 82.4489 4.28 82.7129 4.624V3.64H83.8049ZM80.4929 8.728C80.9089 8.728 81.2809 8.64 81.6089 8.464C81.9449 8.288 82.2049 8.044 82.3889 7.732C82.5809 7.412 82.6769 7.052 82.6769 6.652C82.6769 6.036 82.4729 5.54 82.0649 5.164C81.6569 4.78 81.1329 4.588 80.4929 4.588C79.8449 4.588 79.3169 4.78 78.9089 5.164C78.5009 5.54 78.2969 6.036 78.2969 6.652C78.2969 7.052 78.3889 7.412 78.5729 7.732C78.7649 8.044 79.0249 8.288 79.3529 8.464C79.6889 8.64 80.0689 8.728 80.4929 8.728ZM89.4021 3.58C90.2101 3.58 90.8501 3.816 91.3221 4.288C91.8021 4.752 92.0421 5.436 92.0421 6.34V10H90.8901V6.472C90.8901 5.856 90.7421 5.392 90.4461 5.08C90.1501 4.768 89.7261 4.612 89.1741 4.612C88.5501 4.612 88.0581 4.796 87.6981 5.164C87.3381 5.524 87.1581 6.044 87.1581 6.724V10H86.0061V1.096H87.1581V4.54C87.3981 4.236 87.7101 4 88.0941 3.832C88.4861 3.664 88.9221 3.58 89.4021 3.58ZM97.522 9.628C97.354 9.772 97.146 9.884 96.898 9.964C96.65 10.036 96.394 10.072 96.13 10.072C95.49 10.072 94.994 9.9 94.642 9.556C94.29 9.212 94.114 8.72 94.114 8.08V2.248H95.266V3.64H97.09V4.588H95.266V8.032C95.266 8.376 95.35 8.64 95.518 8.824C95.694 9.008 95.942 9.1 96.262 9.1C96.614 9.1 96.914 9 97.162 8.8L97.522 9.628ZM100.732 10.072C100.212 10.072 99.7124 10.004 99.2324 9.868C98.7524 9.724 98.3764 9.544 98.1044 9.328L98.5844 8.416C98.8644 8.616 99.2044 8.776 99.6044 8.896C100.004 9.016 100.408 9.076 100.816 9.076C101.824 9.076 102.328 8.788 102.328 8.212C102.328 8.02 102.26 7.868 102.124 7.756C101.988 7.644 101.816 7.564 101.608 7.516C101.408 7.46 101.12 7.4 100.744 7.336C100.232 7.256 99.8124 7.164 99.4844 7.06C99.1644 6.956 98.8884 6.78 98.6564 6.532C98.4244 6.284 98.3084 5.936 98.3084 5.488C98.3084 4.912 98.5484 4.452 99.0284 4.108C99.5084 3.756 100.152 3.58 100.96 3.58C101.384 3.58 101.808 3.632 102.232 3.736C102.656 3.84 103.004 3.98 103.276 4.156L102.784 5.068C102.264 4.732 101.652 4.564 100.948 4.564C100.46 4.564 100.088 4.644 99.8324 4.804C99.5764 4.964 99.4484 5.176 99.4484 5.44C99.4484 5.648 99.5204 5.812 99.6644 5.932C99.8084 6.052 99.9844 6.14 100.192 6.196C100.408 6.252 100.708 6.316 101.092 6.388C101.604 6.476 102.016 6.572 102.328 6.676C102.648 6.772 102.92 6.94 103.144 7.18C103.368 7.42 103.48 7.756 103.48 8.188C103.48 8.764 103.232 9.224 102.736 9.568C102.248 9.904 101.58 10.072 100.732 10.072ZM113.927 10L112.115 7.42C111.891 7.436 111.715 7.444 111.587 7.444H109.511V10H108.311V1.6H111.587C112.675 1.6 113.531 1.86 114.155 2.38C114.779 2.9 115.091 3.616 115.091 4.528C115.091 5.176 114.931 5.728 114.611 6.184C114.291 6.64 113.835 6.972 113.243 7.18L115.235 10H113.927ZM111.551 6.424C112.311 6.424 112.891 6.26 113.291 5.932C113.691 5.604 113.891 5.136 113.891 4.528C113.891 3.92 113.691 3.456 113.291 3.136C112.891 2.808 112.311 2.644 111.551 2.644H109.511V6.424H111.551ZM119.73 9.064C120.49 9.064 121.102 8.808 121.566 8.296L122.19 9.04C121.91 9.376 121.554 9.632 121.122 9.808C120.698 9.984 120.222 10.072 119.694 10.072C119.022 10.072 118.426 9.936 117.906 9.664C117.386 9.384 116.982 8.996 116.694 8.5C116.414 8.004 116.274 7.444 116.274 6.82C116.274 6.204 116.41 5.648 116.682 5.152C116.962 4.656 117.342 4.272 117.822 4C118.31 3.72 118.858 3.58 119.466 3.58C120.042 3.58 120.566 3.712 121.038 3.976C121.51 4.232 121.886 4.596 122.166 5.068C122.446 5.54 122.59 6.084 122.598 6.7L117.546 7.684C117.706 8.124 117.974 8.464 118.35 8.704C118.734 8.944 119.194 9.064 119.73 9.064ZM119.466 4.552C119.066 4.552 118.706 4.644 118.386 4.828C118.074 5.012 117.83 5.272 117.654 5.608C117.478 5.936 117.39 6.32 117.39 6.76V6.88L121.458 6.112C121.354 5.648 121.122 5.272 120.762 4.984C120.402 4.696 119.97 4.552 119.466 4.552ZM126.033 10.072C125.513 10.072 125.013 10.004 124.533 9.868C124.053 9.724 123.677 9.544 123.405 9.328L123.885 8.416C124.165 8.616 124.505 8.776 124.905 8.896C125.305 9.016 125.709 9.076 126.117 9.076C127.125 9.076 127.629 8.788 127.629 8.212C127.629 8.02 127.561 7.868 127.425 7.756C127.289 7.644 127.117 7.564 126.909 7.516C126.709 7.46 126.421 7.4 126.045 7.336C125.533 7.256 125.113 7.164 124.785 7.06C124.465 6.956 124.189 6.78 123.957 6.532C123.725 6.284 123.609 5.936 123.609 5.488C123.609 4.912 123.849 4.452 124.329 4.108C124.809 3.756 125.453 3.58 126.261 3.58C126.685 3.58 127.109 3.632 127.533 3.736C127.957 3.84 128.305 3.98 128.577 4.156L128.085 5.068C127.565 4.732 126.953 4.564 126.249 4.564C125.761 4.564 125.389 4.644 125.133 4.804C124.877 4.964 124.749 5.176 124.749 5.44C124.749 5.648 124.821 5.812 124.965 5.932C125.109 6.052 125.285 6.14 125.493 6.196C125.709 6.252 126.009 6.316 126.393 6.388C126.905 6.476 127.317 6.572 127.629 6.676C127.949 6.772 128.221 6.94 128.445 7.18C128.669 7.42 128.781 7.756 128.781 8.188C128.781 8.764 128.533 9.224 128.037 9.568C127.549 9.904 126.881 10.072 126.033 10.072ZM133.089 9.064C133.849 9.064 134.461 8.808 134.925 8.296L135.549 9.04C135.269 9.376 134.913 9.632 134.481 9.808C134.057 9.984 133.581 10.072 133.053 10.072C132.381 10.072 131.785 9.936 131.265 9.664C130.745 9.384 130.341 8.996 130.053 8.5C129.773 8.004 129.633 7.444 129.633 6.82C129.633 6.204 129.769 5.648 130.041 5.152C130.321 4.656 130.701 4.272 131.181 4C131.669 3.72 132.217 3.58 132.825 3.58C133.401 3.58 133.925 3.712 134.397 3.976C134.869 4.232 135.245 4.596 135.525 5.068C135.805 5.54 135.949 6.084 135.957 6.7L130.905 7.684C131.065 8.124 131.333 8.464 131.709 8.704C132.093 8.944 132.553 9.064 133.089 9.064ZM132.825 4.552C132.425 4.552 132.065 4.644 131.745 4.828C131.433 5.012 131.189 5.272 131.013 5.608C130.837 5.936 130.749 6.32 130.749 6.76V6.88L134.817 6.112C134.713 5.648 134.481 5.272 134.121 4.984C133.761 4.696 133.329 4.552 132.825 4.552ZM138.673 4.708C138.873 4.34 139.169 4.06 139.561 3.868C139.953 3.676 140.429 3.58 140.989 3.58V4.696C140.925 4.688 140.837 4.684 140.725 4.684C140.101 4.684 139.609 4.872 139.249 5.248C138.897 5.616 138.721 6.144 138.721 6.832V10H137.569V3.64H138.673V4.708ZM148.294 3.64L145.51 10H144.334L141.55 3.64H142.75L144.934 8.74L147.166 3.64H148.294ZM152.062 9.064C152.822 9.064 153.434 8.808 153.898 8.296L154.522 9.04C154.242 9.376 153.886 9.632 153.454 9.808C153.03 9.984 152.554 10.072 152.026 10.072C151.354 10.072 150.758 9.936 150.238 9.664C149.718 9.384 149.314 8.996 149.026 8.5C148.746 8.004 148.606 7.444 148.606 6.82C148.606 6.204 148.742 5.648 149.014 5.152C149.294 4.656 149.674 4.272 150.154 4C150.642 3.72 151.19 3.58 151.798 3.58C152.374 3.58 152.898 3.712 153.37 3.976C153.842 4.232 154.218 4.596 154.498 5.068C154.778 5.54 154.922 6.084 154.93 6.7L149.878 7.684C150.038 8.124 150.306 8.464 150.682 8.704C151.066 8.944 151.526 9.064 152.062 9.064ZM151.798 4.552C151.398 4.552 151.038 4.644 150.718 4.828C150.406 5.012 150.162 5.272 149.986 5.608C149.81 5.936 149.722 6.32 149.722 6.76V6.88L153.79 6.112C153.686 5.648 153.454 5.272 153.094 4.984C152.734 4.696 152.302 4.552 151.798 4.552ZM162.541 1.096V10H161.437V8.992C161.181 9.344 160.857 9.612 160.465 9.796C160.073 9.98 159.641 10.072 159.169 10.072C158.553 10.072 158.001 9.936 157.513 9.664C157.025 9.392 156.641 9.012 156.361 8.524C156.089 8.028 155.953 7.46 155.953 6.82C155.953 6.18 156.089 5.616 156.361 5.128C156.641 4.64 157.025 4.26 157.513 3.988C158.001 3.716 158.553 3.58 159.169 3.58C159.625 3.58 160.045 3.668 160.429 3.844C160.813 4.012 161.133 4.264 161.389 4.6V1.096H162.541ZM159.265 9.064C159.665 9.064 160.029 8.972 160.357 8.788C160.685 8.596 160.941 8.332 161.125 7.996C161.309 7.652 161.401 7.26 161.401 6.82C161.401 6.38 161.309 5.992 161.125 5.656C160.941 5.312 160.685 5.048 160.357 4.864C160.029 4.68 159.665 4.588 159.265 4.588C158.857 4.588 158.489 4.68 158.161 4.864C157.841 5.048 157.585 5.312 157.393 5.656C157.209 5.992 157.117 6.38 157.117 6.82C157.117 7.26 157.209 7.652 157.393 7.996C157.585 8.332 157.841 8.596 158.161 8.788C158.489 8.972 158.857 9.064 159.265 9.064ZM164.997 10.072C164.773 10.072 164.581 9.996 164.421 9.844C164.261 9.684 164.181 9.484 164.181 9.244C164.181 9.012 164.261 8.82 164.421 8.668C164.581 8.508 164.773 8.428 164.997 8.428C165.221 8.428 165.409 8.504 165.561 8.656C165.713 8.808 165.789 9.004 165.789 9.244C165.789 9.484 165.709 9.684 165.549 9.844C165.397 9.996 165.213 10.072 164.997 10.072Z" fill="#4D4D4D"/>
<path d="M177.082 9.124C176.722 9.428 176.25 9.668 175.666 9.844C175.082 10.012 174.446 10.096 173.758 10.096C172.99 10.096 172.338 9.996 171.802 9.796C171.266 9.588 170.862 9.304 170.59 8.944C170.318 8.584 170.182 8.168 170.182 7.696C170.182 7.216 170.318 6.804 170.59 6.46C170.87 6.108 171.23 5.856 171.67 5.704C171.318 5.544 171.042 5.304 170.842 4.984C170.642 4.656 170.542 4.28 170.542 3.856C170.542 3.416 170.666 3.02 170.914 2.668C171.17 2.316 171.554 2.036 172.066 1.828C172.578 1.612 173.202 1.504 173.938 1.504C174.458 1.504 174.962 1.56 175.45 1.672C175.946 1.784 176.374 1.944 176.734 2.152L176.386 3.112C175.666 2.728 174.866 2.536 173.986 2.536C173.258 2.536 172.702 2.668 172.318 2.932C171.934 3.188 171.742 3.524 171.742 3.94C171.742 4.356 171.89 4.676 172.186 4.9C172.482 5.124 172.906 5.236 173.458 5.236H175.618V6.268H173.41C172.778 6.268 172.282 6.38 171.922 6.604C171.562 6.828 171.382 7.164 171.382 7.612C171.382 8.068 171.586 8.424 171.994 8.68C172.402 8.936 173.01 9.064 173.818 9.064C174.378 9.064 174.91 8.988 175.414 8.836C175.926 8.676 176.346 8.46 176.674 8.188L177.082 9.124ZM181.781 3.58C182.589 3.58 183.229 3.816 183.701 4.288C184.181 4.752 184.421 5.436 184.421 6.34V10H183.269V6.472C183.269 5.856 183.121 5.392 182.825 5.08C182.529 4.768 182.105 4.612 181.553 4.612C180.929 4.612 180.437 4.796 180.077 5.164C179.717 5.524 179.537 6.044 179.537 6.724V10H178.385V3.64H179.489V4.6C179.721 4.272 180.033 4.02 180.425 3.844C180.825 3.668 181.277 3.58 181.781 3.58ZM192.672 3.64V9.136C192.672 10.248 192.396 11.068 191.844 11.596C191.292 12.132 190.468 12.4 189.372 12.4C188.772 12.4 188.2 12.316 187.656 12.148C187.112 11.988 186.672 11.756 186.336 11.452L186.888 10.564C187.184 10.82 187.548 11.02 187.98 11.164C188.42 11.316 188.872 11.392 189.336 11.392C190.08 11.392 190.628 11.216 190.98 10.864C191.34 10.512 191.52 9.976 191.52 9.256V8.752C191.248 9.08 190.912 9.328 190.512 9.496C190.12 9.656 189.692 9.736 189.228 9.736C188.62 9.736 188.068 9.608 187.572 9.352C187.084 9.088 186.7 8.724 186.42 8.26C186.14 7.788 186 7.252 186 6.652C186 6.052 186.14 5.52 186.42 5.056C186.7 4.584 187.084 4.22 187.572 3.964C188.068 3.708 188.62 3.58 189.228 3.58C189.708 3.58 190.152 3.668 190.56 3.844C190.976 4.02 191.316 4.28 191.58 4.624V3.64H192.672ZM189.36 8.728C189.776 8.728 190.148 8.64 190.476 8.464C190.812 8.288 191.072 8.044 191.256 7.732C191.448 7.412 191.544 7.052 191.544 6.652C191.544 6.036 191.34 5.54 190.932 5.164C190.524 4.78 190 4.588 189.36 4.588C188.712 4.588 188.184 4.78 187.776 5.164C187.368 5.54 187.164 6.036 187.164 6.652C187.164 7.052 187.256 7.412 187.44 7.732C187.632 8.044 187.892 8.288 188.22 8.464C188.556 8.64 188.936 8.728 189.36 8.728ZM200.256 1.972C199.568 1.972 199.224 2.344 199.224 3.088V3.64H201.084V4.588H199.248V10H198.096V3.076C198.096 2.444 198.28 1.944 198.648 1.576C199.016 1.208 199.532 1.024 200.196 1.024C200.452 1.024 200.692 1.056 200.916 1.12C201.14 1.184 201.332 1.276 201.492 1.396L201.144 2.272C200.88 2.072 200.584 1.972 200.256 1.972ZM204.793 10.072C204.161 10.072 203.593 9.932 203.089 9.652C202.585 9.372 202.189 8.988 201.901 8.5C201.621 8.004 201.481 7.444 201.481 6.82C201.481 6.196 201.621 5.64 201.901 5.152C202.189 4.656 202.585 4.272 203.089 4C203.593 3.72 204.161 3.58 204.793 3.58C205.425 3.58 205.989 3.72 206.485 4C206.989 4.272 207.381 4.656 207.661 5.152C207.949 5.64 208.093 6.196 208.093 6.82C208.093 7.444 207.949 8.004 207.661 8.5C207.381 8.988 206.989 9.372 206.485 9.652C205.989 9.932 205.425 10.072 204.793 10.072ZM204.793 9.064C205.201 9.064 205.565 8.972 205.885 8.788C206.213 8.596 206.469 8.332 206.653 7.996C206.837 7.652 206.929 7.26 206.929 6.82C206.929 6.38 206.837 5.992 206.653 5.656C206.469 5.312 206.213 5.048 205.885 4.864C205.565 4.68 205.201 4.588 204.793 4.588C204.385 4.588 204.017 4.68 203.689 4.864C203.369 5.048 203.113 5.312 202.921 5.656C202.737 5.992 202.645 6.38 202.645 6.82C202.645 7.26 202.737 7.652 202.921 7.996C203.113 8.332 203.369 8.596 203.689 8.788C204.017 8.972 204.385 9.064 204.793 9.064ZM210.79 4.708C210.99 4.34 211.286 4.06 211.678 3.868C212.07 3.676 212.546 3.58 213.106 3.58V4.696C213.042 4.688 212.954 4.684 212.842 4.684C212.218 4.684 211.726 4.872 211.366 5.248C211.014 5.616 210.838 6.144 210.838 6.832V10H209.686V3.64H210.79V4.708ZM224.994 1.6V7.504C224.994 8.72 224.67 9.652 224.022 10.3C223.374 10.948 222.478 11.272 221.334 11.272C220.646 11.272 220.018 11.164 219.45 10.948C218.89 10.74 218.418 10.44 218.034 10.048L218.55 9.112C219.286 9.832 220.214 10.192 221.334 10.192C222.982 10.192 223.806 9.312 223.806 7.552V6.7C223.246 7.516 222.378 7.924 221.202 7.924C220.146 7.924 219.326 7.62 218.742 7.012C218.158 6.404 217.866 5.536 217.866 4.408V1.6H219.066V4.36C219.066 5.176 219.266 5.796 219.666 6.22C220.066 6.644 220.622 6.856 221.334 6.856C222.102 6.856 222.706 6.632 223.146 6.184C223.586 5.736 223.806 5.068 223.806 4.18V1.6H224.994ZM230 10.072C229.368 10.072 228.8 9.932 228.296 9.652C227.792 9.372 227.396 8.988 227.108 8.5C226.828 8.004 226.688 7.444 226.688 6.82C226.688 6.196 226.828 5.64 227.108 5.152C227.396 4.656 227.792 4.272 228.296 4C228.8 3.72 229.368 3.58 230 3.58C230.632 3.58 231.196 3.72 231.692 4C232.196 4.272 232.588 4.656 232.868 5.152C233.156 5.64 233.3 6.196 233.3 6.82C233.3 7.444 233.156 8.004 232.868 8.5C232.588 8.988 232.196 9.372 231.692 9.652C231.196 9.932 230.632 10.072 230 10.072ZM230 9.064C230.408 9.064 230.772 8.972 231.092 8.788C231.42 8.596 231.676 8.332 231.86 7.996C232.044 7.652 232.136 7.26 232.136 6.82C232.136 6.38 232.044 5.992 231.86 5.656C231.676 5.312 231.42 5.048 231.092 4.864C230.772 4.68 230.408 4.588 230 4.588C229.592 4.588 229.224 4.68 228.896 4.864C228.576 5.048 228.32 5.312 228.128 5.656C227.944 5.992 227.852 6.38 227.852 6.82C227.852 7.26 227.944 7.652 228.128 7.996C228.32 8.332 228.576 8.596 228.896 8.788C229.224 8.972 229.592 9.064 230 9.064ZM240.821 3.64V10H239.729V9.04C239.497 9.368 239.189 9.624 238.805 9.808C238.429 9.984 238.017 10.072 237.569 10.072C236.721 10.072 236.053 9.84 235.565 9.376C235.077 8.904 234.833 8.212 234.833 7.3V3.64H235.985V7.168C235.985 7.784 236.133 8.252 236.429 8.572C236.725 8.884 237.149 9.04 237.701 9.04C238.309 9.04 238.789 8.856 239.141 8.488C239.493 8.12 239.669 7.6 239.669 6.928V3.64H240.821Z" fill="#CD4631"/>
</svg>
