<svg width="130" height="130" viewBox="0 0 130 130" fill="none" xmlns="http://www.w3.org/2000/svg">
<path d="M23.516 51.9652C23.3254 50.7606 20.3272 52.0266 19.7164 50.2406C19.0944 48.4742 21.6413 47.9901 22.8753 47.4777C25.0125 46.5746 27.3135 45.9746 29.5881 45.646C30.4761 45.5071 32.3009 45.5965 32.4855 46.9018C32.6078 47.7282 32.4316 48.3041 30.9185 49.2547C30.1101 49.7522 29.6889 50.0303 27.9308 50.6831C27.7051 51.0741 28.0432 51.8426 28.2671 52.4931C32.9402 66.1107 40.3487 77.7892 52.684 85.7189C65.0081 93.6682 78.1828 96.0364 92.248 90.8137C93.4985 90.363 94.9889 90.1289 95.7125 89.1915C96.2503 88.4856 96.1437 87.9029 95.9429 85.8584C95.8702 85.217 96.3457 84.0322 97.3466 83.6979C99.0205 83.1007 99.7457 84.3272 99.914 84.8935C101.013 88.812 101.298 92.8332 101.224 96.2566C101.001 97.2746 100.145 97.7187 99.4474 97.8891C98.8729 98.0265 97.9182 97.4232 97.4559 96.8696C96.9185 96.2206 96.7016 95.2874 96.1861 94.1038C80.2558 100.751 64.7281 99.3442 50.1893 90.2205C35.8512 81.2909 26.6486 67.6643 23.516 51.9652Z" fill="black"/>
<path d="M89.0428 61.1567C91.9521 55.9824 97.9799 53.9376 102.503 56.5752C106.44 58.8743 107.634 64.932 105.044 69.5087C102.569 73.8396 96.4248 75.6346 92.1495 73.2445C87.8465 70.8122 86.509 65.6357 89.0428 61.1567ZM93.1311 62.7874C91.7483 65.2727 92.4023 68.0219 94.7118 69.3031C96.728 70.4151 99.7719 69.5664 100.803 67.5554C102.093 65.0949 102.256 61.879 98.9643 60.4479C97.0924 59.6277 94.7396 59.9112 93.1311 62.7874Z" fill="#CD4631"/>
<path d="M56.5119 37.1107C53.8322 41.6618 47.8646 43.3765 43.4359 40.8457C39.2223 38.439 38.0241 32.7956 40.9843 28.1198C44.596 22.3607 48.9096 22.4275 53.9466 24.7622C57.8912 26.5966 58.9689 32.9001 56.5119 37.1107ZM44.8846 29.8504C43.1949 32.7319 43.506 35.8042 45.5861 37.0313C47.9007 38.3937 51.3793 37.379 52.8125 34.8967C54.1328 32.6098 53.3249 29.2245 51.1801 28.0644C48.4572 26.5966 46.4306 27.1727 44.8846 29.8504Z" fill="#81ADC8"/>
</svg>
