<svg width="136" height="136" viewBox="0 0 136 136" fill="none" xmlns="http://www.w3.org/2000/svg">
<path d="M95.7567 77.1193C93.3653 77.1065 91.3399 77.1465 89.3214 77.0715C85.8975 76.9583 82.5212 76.6941 79.3529 75.1424C76.1401 73.565 74.3946 70.9911 74.4741 67.4884C74.5263 65.3377 75.1619 63.2067 75.6121 61.0877C75.7926 60.2601 76.2092 59.4698 76.6575 58.2813C74.9756 59.1342 73.6649 59.8247 72.3269 60.4598C69.0638 62.0254 65.8619 63.7254 62.5125 65.0628C57.9321 66.9185 54.4533 65.2867 52.7491 60.6154C52.0822 58.7831 51.8569 56.7696 51.4503 54.8299C51.3315 54.2459 51.2979 53.6516 51.2095 52.9463C48.8664 55.4594 46.675 57.8816 44.4052 60.1991C39.1041 65.6038 34.1477 62.4449 32.1399 57.5784C31.6027 56.277 31.3749 54.8172 31.1363 53.4106C31.0085 52.4645 31.3937 51.5569 32.4399 51.4274C33.386 51.2996 33.8639 52.0513 34.1199 52.9128C34.3845 53.7594 34.5935 54.6335 34.9456 55.4315C35.3589 56.364 35.787 57.305 36.3753 58.1403C38.0344 60.4859 39.86 60.8263 42.1211 59.039C43.7196 57.7812 45.1403 56.2819 46.5587 54.8209C47.8787 53.4618 49.1415 52.0299 50.4043 50.5981C51.0635 49.8685 51.7524 49.156 52.8225 49.3971C54.0522 49.6709 54.256 50.7601 54.4496 51.7639C54.7037 53.0407 54.7639 54.3442 55.0884 55.6021C55.4774 57.1946 55.9047 58.7895 56.5306 60.2808C57.3862 62.3013 58.5208 62.8771 60.6402 62.2966C62.6657 61.7413 64.7068 61.0562 66.6209 60.1788C70.7117 58.2783 74.718 56.2496 78.7328 54.2061C79.6847 53.7248 80.5439 53.5071 81.3776 54.2264C82.1753 54.905 82.0372 55.7967 81.684 56.6831C81.0508 58.2604 80.3411 59.8331 79.7909 61.4385C79.314 62.8483 78.8496 64.305 78.6387 65.7692C78.0655 69.6808 79.4444 71.825 83.1395 73.1852C85.9161 74.2134 88.8039 74.6713 91.7444 74.7632C93.863 74.8365 95.9822 74.7714 98.0906 74.7595C99.2065 74.7496 100.361 74.7419 100.862 76.0027C101.321 77.1995 100.606 78.0949 99.8629 78.9349C99.5419 79.2849 99.1701 79.5856 98.813 79.895C98.0841 80.505 97.3827 81.1706 96.5966 81.708C90.7777 85.7432 89.9711 91.3638 91.5764 97.6829C91.8757 98.847 92.5417 99.9254 93.0756 101.027C93.3351 101.573 93.7674 102.06 93.9565 102.626C94.1017 103.027 94.1392 103.683 93.9018 103.922C93.6471 104.192 92.9996 104.214 92.6016 104.183C91.7373 104.1 90.867 103.479 90.3673 102.833C89.3827 101.551 88.4434 100.156 87.8794 98.661C86.6163 95.3545 86.4253 91.874 86.8519 88.3536C87.2167 85.3525 88.7669 82.9764 90.9543 81.0078C92.3995 79.7408 93.9293 78.6019 95.7567 77.1193Z" fill="#81ADC8"/>
</svg>
