<svg width="240" height="240" viewBox="0 0 240 240" fill="none" xmlns="http://www.w3.org/2000/svg">
<path d="M116.542 118.291C117.042 116.291 117.333 114.666 117.875 113.083C123.292 97.0828 132 82.8328 141.917 69.2911C143.083 67.7078 144.542 66.2078 146.167 65.2078C147.042 64.6661 148.792 64.7495 149.792 65.2911C150.542 65.7078 151.083 67.3328 150.917 68.2495C150.625 69.9995 150 71.7911 149.125 73.3745C143.375 83.8328 137.583 94.2495 131.708 104.624C129.5 108.499 127.167 112.333 124.875 116.166C124.125 117.458 123.292 118.708 122.417 119.874C121.458 121.208 120 121.999 118.542 121.124C117.583 120.541 116.542 120.124 116.542 118.291Z" fill="#CD4631"/>
<path d="M175.542 180.334C173.542 180.001 171.208 179.751 168.958 179.251C160.083 177.251 151.208 175.251 142.375 173.168C140.458 172.709 138.583 171.918 136.875 171.001C134.583 169.793 133.792 168.084 134.167 166.209C134.542 164.334 136.042 163.168 138.667 163.126C140.458 163.084 142.375 163.126 144.083 163.543C155.292 166.376 166.5 169.293 177.667 172.251C178.917 172.584 180.208 173.168 181.167 174.001C183.583 176.043 182.833 179.251 179.75 180.043C178.542 180.334 177.167 180.209 175.542 180.334Z" fill="#CD4631"/>
<path d="M58.4584 68.6248C58.6251 66.6664 59.0417 64.7081 59.5417 62.7914C60.0001 61.0831 61.1667 59.8748 63.0417 59.7081C64.6251 59.5831 66.3334 61.1664 66.5834 63.2498C66.9167 66.0414 67.2084 68.8748 67.0834 71.6664C66.7084 80.0831 66.1667 88.5414 65.5834 96.9581C65.3751 99.7498 65.0001 102.541 64.5417 105.333C64.3751 106.291 64.0417 107.291 63.5001 108.041C62.0417 110.166 59.3751 110 58.3334 107.708C57.7501 106.416 57.5001 104.833 57.5001 103.416C57.2917 98.7498 57.9167 75.5414 58.4584 68.6248Z" fill="#CD4631"/>
</svg>
