<svg width="64" height="62" viewBox="0 0 64 62" fill="none" xmlns="http://www.w3.org/2000/svg">
<path d="M33.729 30.1451C33.479 29.1451 33.3332 28.3326 33.0623 27.5409C30.354 19.5409 25.9998 12.4159 21.0415 5.64508C20.4582 4.85341 19.729 4.10341 18.9165 3.60341C18.479 3.33258 17.604 3.37424 17.104 3.64508C16.729 3.85341 16.4582 4.66591 16.5415 5.12424C16.6873 5.99924 16.9998 6.89508 17.4373 7.68675C20.3123 12.9159 23.2082 18.1242 26.1457 23.3118C27.2498 25.2493 28.4165 27.1659 29.5623 29.0826C29.9373 29.7284 30.354 30.3534 30.7915 30.9368C31.2707 31.6034 31.9998 31.9993 32.729 31.5618C33.2082 31.2701 33.729 31.0617 33.729 30.1451Z" fill="#CD4631"/>
<path d="M4.22939 61.1672C5.22939 61.0005 6.39606 60.8755 7.52106 60.6255C11.9586 59.6255 16.3961 58.6255 20.8127 57.5838C21.7711 57.3547 22.7086 56.9588 23.5627 56.5005C24.7086 55.8963 25.1044 55.0422 24.9169 54.1047C24.7294 53.1672 23.9794 52.5838 22.6669 52.563C21.7711 52.5422 20.8127 52.563 19.9586 52.7713C14.3544 54.188 8.75023 55.6463 3.1669 57.1255C2.5419 57.2922 1.89606 57.5838 1.4169 58.0005C0.208563 59.0213 0.583563 60.6255 2.12523 61.0213C2.7294 61.1672 3.41689 61.1047 4.22939 61.1672Z" fill="#CD4631"/>
<path d="M62.7708 5.31238C62.6875 4.33321 62.4791 3.35405 62.2291 2.39571C62 1.54155 61.4166 0.937379 60.4791 0.854046C59.6875 0.791546 58.8333 1.58321 58.7083 2.62488C58.5416 4.02071 58.3958 5.43738 58.4583 6.83321C58.6458 11.0415 58.9166 15.2707 59.2083 19.479C59.3125 20.8749 59.5 22.2707 59.7291 23.6665C59.8125 24.1457 59.9791 24.6457 60.25 25.0207C60.9791 26.0832 62.3125 25.9999 62.8333 24.854C63.125 24.2082 63.25 23.4165 63.25 22.7082C63.3541 20.3749 63.0416 8.77071 62.7708 5.31238Z" fill="#CD4631"/>
</svg>
