<svg width="63" height="61" viewBox="0 0 63 61" fill="none" xmlns="http://www.w3.org/2000/svg">
<path d="M29.5415 29.2945C29.7915 28.2945 29.9373 27.482 30.2082 26.6903C32.9165 18.6903 37.2707 11.5653 42.229 4.79449C42.8124 4.00282 43.5415 3.25282 44.354 2.75282C44.7915 2.48199 45.6665 2.52366 46.1665 2.79449C46.5415 3.00283 46.8124 3.81532 46.729 4.27366C46.5832 5.14866 46.2707 6.04449 45.8332 6.83616C42.9582 12.0653 40.0623 17.2737 37.1248 22.4612C36.0207 24.3987 34.854 26.3153 33.7082 28.232C33.3332 28.8778 32.9165 29.5028 32.479 30.0862C31.9998 30.7528 31.2707 31.1487 30.5415 30.7112C30.0623 30.4195 29.5415 30.2112 29.5415 29.2945Z" fill="#CD4631"/>
<path d="M59.0411 60.3166C58.0411 60.1499 56.8744 60.0249 55.7494 59.7749C51.3119 58.7749 46.8744 57.7749 42.4578 56.7332C41.4994 56.5041 40.5619 56.1082 39.7078 55.6499C38.5619 55.0457 38.1661 54.1916 38.3536 53.2541C38.5411 52.3166 39.2911 51.7333 40.6036 51.7124C41.4994 51.6916 42.4578 51.7124 43.3119 51.9207C48.9161 53.3374 54.5203 54.7957 60.1036 56.2749C60.7286 56.4416 61.3744 56.7332 61.8536 57.1499C63.0619 58.1707 62.6869 59.7749 61.1453 60.1707C60.5411 60.3166 59.8536 60.2541 59.0411 60.3166Z" fill="#CD4631"/>
<path d="M0.4997 4.46179C0.583033 3.48263 0.791367 2.50346 1.04137 1.54513C1.27053 0.69096 1.85387 0.0867934 2.79137 0.00346005C3.58303 -0.0590399 4.4372 0.732627 4.5622 1.77429C4.72886 3.17013 4.8747 4.58679 4.8122 5.98263C4.6247 10.191 4.35387 14.4201 4.0622 18.6285C3.95803 20.0243 3.77053 21.4201 3.54137 22.816C3.45803 23.2951 3.29137 23.7951 3.02053 24.1701C2.29137 25.2326 0.958033 25.1493 0.4372 24.0035C0.145534 23.3576 0.020534 22.566 0.020534 21.8576C-0.0836327 19.5243 0.228866 7.92013 0.4997 4.46179Z" fill="#CD4631"/>
</svg>
