<svg width="20" height="20" viewBox="0 0 20 20" fill="none" xmlns="http://www.w3.org/2000/svg">
<path d="M5.2816 12.3707C5.37927 11.562 5.71094 11.1092 6.33596 10.6451C7.23024 10.0165 8.34734 10.3721 8.34734 10.3721V8.26259C8.61892 8.25565 8.8906 8.27175 9.15922 8.31069V11.0254C9.15922 11.0254 8.04246 10.6698 7.14818 11.2987C6.5235 11.7626 6.19115 12.2157 6.09382 13.0244C6.09077 13.4635 6.17318 14.0375 6.55266 14.5338C6.45884 14.4857 6.3632 14.4309 6.26576 14.3693C5.4298 13.808 5.27753 12.9658 5.2816 12.3707ZM13.7717 4.36217C13.1565 3.68805 12.9239 3.00742 12.8398 2.5293H13.6137C13.6137 2.5293 13.4594 3.78296 14.5839 5.01581L14.5995 5.03239C14.2965 4.84174 14.0185 4.6167 13.7717 4.36217ZM17.4998 6.27337V8.93346C17.4998 8.93346 16.5122 8.89478 15.7814 8.70886C14.761 8.44883 14.1051 8.05002 14.1051 8.05002C14.1051 8.05002 13.652 7.76561 13.6154 7.74578V13.2389C13.6154 13.5447 13.5316 14.3086 13.2763 14.9456C12.9429 15.779 12.4284 16.3261 12.3338 16.4379C12.3338 16.4379 11.7081 17.1773 10.6043 17.6753C9.60924 18.1245 8.73564 18.1131 8.47451 18.1245C8.47451 18.1245 6.96437 18.1843 5.60547 17.3012C5.31162 17.1065 5.03732 16.8861 4.78613 16.6426L4.79292 16.6475C6.15215 17.5306 7.66196 17.4708 7.66196 17.4708C7.92343 17.4595 8.79703 17.4708 9.7917 17.0216C10.8945 16.5237 11.5213 15.7842 11.5213 15.7842C11.6149 15.6724 12.1317 15.1254 12.4637 14.2917C12.7184 13.6549 12.8028 12.8908 12.8028 12.5849V7.09246C12.8395 7.11262 13.2922 7.39702 13.2922 7.39702C13.2922 7.39702 13.9484 7.79616 14.9689 8.05587C15.7 8.24179 16.6872 8.28047 16.6872 8.28047V6.19602C17.025 6.27175 17.3129 6.29223 17.4998 6.27337Z" fill="#EE1D52"/>
<path d="M16.6875 6.19602V8.27982C16.6875 8.27982 15.7003 8.24114 14.9692 8.05522C13.9487 7.79519 13.2925 7.39637 13.2925 7.39637C13.2925 7.39637 12.8398 7.11196 12.8032 7.09181V12.5856C12.8032 12.8914 12.7194 13.6556 12.464 14.2923C12.1307 15.126 11.6162 15.6731 11.5216 15.7849C11.5216 15.7849 10.8955 16.5243 9.79201 17.0223C8.79734 17.4715 7.92374 17.4601 7.66227 17.4715C7.66227 17.4715 6.15247 17.5313 4.79323 16.6482L4.78645 16.6433C4.64294 16.5043 4.50786 16.3576 4.38187 16.2038C3.94812 15.675 3.68224 15.0496 3.61543 14.8712C3.61532 14.8704 3.61532 14.8697 3.61543 14.8689C3.50793 14.5588 3.28207 13.8142 3.31293 13.0929C3.36753 11.8204 3.81518 11.0394 3.93354 10.8437C4.247 10.3101 4.65469 9.83269 5.13847 9.43271C5.56537 9.08757 6.04926 8.81295 6.57027 8.62013C7.13351 8.39373 7.73664 8.27238 8.34732 8.26259V10.3721C8.34732 10.3721 7.23022 10.0178 6.33627 10.6451C5.71126 11.1092 5.37959 11.562 5.28192 12.3707C5.27785 12.9658 5.43012 13.808 6.2654 14.3697C6.36284 14.4314 6.45847 14.4863 6.5523 14.5341C6.69822 14.7238 6.87583 14.8891 7.07795 15.0233C7.8939 15.5398 8.57759 15.5759 9.45187 15.2404C10.0348 15.0162 10.4737 14.5107 10.6771 13.9507C10.805 13.601 10.8033 13.2489 10.8033 12.8849V2.5293H12.8381C12.9222 3.00742 13.1548 3.68805 13.77 4.36217C14.0168 4.6167 14.2947 4.84174 14.5978 5.03239C14.6874 5.12503 15.1452 5.583 15.7329 5.86416C16.0368 6.00949 16.3571 6.12084 16.6875 6.19602Z" fill="black"/>
<path d="M2.80566 14.2227V14.2243L2.85615 14.3611C2.85035 14.3452 2.83159 14.2968 2.80566 14.2227Z" fill="#69C9D0"/>
<path d="M6.57051 8.61941C6.0495 8.81224 5.56561 9.08685 5.1387 9.432C4.65477 9.83288 4.24718 10.3113 3.93411 10.8459C3.81576 11.0409 3.3681 11.8226 3.3135 13.0951C3.28264 13.8164 3.5085 14.5611 3.61601 14.8711C3.61589 14.8719 3.61589 14.8727 3.61601 14.8734C3.68383 15.0502 3.94869 15.6756 4.38244 16.2061C4.50844 16.3598 4.64352 16.5065 4.78702 16.6455C4.32723 16.3407 3.91716 15.9722 3.57023 15.5521C3.14021 15.0278 2.87501 14.4089 2.80583 14.2263C2.80574 14.225 2.80574 14.2237 2.80583 14.2224V14.2201C2.69798 13.9103 2.47144 13.1654 2.50298 12.4431C2.55758 11.1706 3.00523 10.3896 3.12359 10.1939C3.43657 9.65922 3.84417 9.18079 4.32818 8.77998C4.755 8.43471 5.23891 8.16009 5.75999 7.96739C6.08501 7.83814 6.42361 7.74279 6.76992 7.68299C7.29183 7.59567 7.82487 7.5881 8.34925 7.66056V8.26187C7.738 8.27146 7.13427 8.39281 6.57051 8.61941Z" fill="#69C9D0"/>
<path d="M12.8399 2.52897H10.8051V12.8849C10.8051 13.2489 10.8051 13.6 10.6789 13.9507C10.4734 14.5104 10.0363 15.0158 9.45365 15.2401C8.57904 15.5768 7.89535 15.5395 7.07974 15.023C6.87727 14.8894 6.69921 14.7246 6.55273 14.5354C7.24761 14.8907 7.86958 14.8845 8.64008 14.5881C9.22237 14.3638 9.66018 13.8584 9.86502 13.2984C9.99321 12.9486 9.99151 12.5966 9.99151 12.2329V1.875H12.8012C12.8012 1.875 12.7697 2.13243 12.8399 2.52897ZM16.6876 5.6194V6.19569C16.3578 6.12039 16.038 6.00904 15.7347 5.86383C15.147 5.58267 14.6891 5.1247 14.5996 5.03206C14.7035 5.09744 14.8113 5.15691 14.9225 5.21018C15.637 5.55212 16.3407 5.65418 16.6876 5.6194Z" fill="#69C9D0"/>
</svg>
