<svg width="67" height="66" viewBox="0 0 67 66" fill="none" xmlns="http://www.w3.org/2000/svg">
<path d="M23.6146 23.1963C22.2604 22.2213 21.2719 21.5036 20.2833 20.7995C16.3021 17.9422 12.2938 15.0984 8.33959 12.2005C7.39168 11.5099 6.49793 10.6567 5.83438 9.70883C5.45522 9.14008 5.33334 8.12446 5.59063 7.52862C5.73959 7.17654 6.95834 6.98696 7.54064 7.19008C8.96251 7.66404 10.3438 8.31404 11.6438 9.05883C15.6927 11.4015 19.7011 13.8255 23.8854 16.3172C24.2646 13.8255 24.5896 11.3474 25.05 8.89633C25.4021 7.0005 25.8896 5.10467 26.4177 3.24946C26.7563 2.04425 27.474 1.00154 28.9229 1.20467C30.4261 1.40779 30.9136 2.59946 30.8865 3.94008C30.8323 7.93487 30.6969 11.9161 30.6156 15.9109C30.5886 16.8588 30.6156 17.8068 30.6156 18.7547C30.7646 18.8901 32.0375 17.7526 32.6333 17.1703C37.725 12.187 42.8167 7.23071 47.9625 2.30154C48.6802 1.61092 49.5875 1.02862 50.5083 0.649457C50.9958 0.446332 51.9167 0.595291 52.2417 0.947374C52.5667 1.29946 52.6344 2.22029 52.4042 2.69425C51.9708 3.60154 51.3208 4.42758 50.6302 5.17237C46.0938 10.1557 41.5302 15.112 36.9802 20.0818C36.4792 20.6234 35.9781 21.1922 35.2333 22.0182C38.6458 21.7745 41.7198 21.5036 44.7938 21.3411C50.9823 21.0297 57.1844 20.7724 63.3729 20.5015C63.7521 20.488 64.1583 20.488 64.4833 20.5557C66.6094 21.0026 66.4198 23.1286 64.8219 23.3995C62.8719 23.738 60.9083 24.1578 58.9313 24.3609C51.849 25.0651 44.7667 25.688 37.6844 26.3515C37.5354 26.3651 37.4 26.4193 36.9531 26.5411C38.9031 28.0713 40.7042 29.4797 42.5052 30.8745C45.9042 33.5286 49.3438 36.1422 52.6886 38.8505C53.5823 39.5817 54.3677 40.5432 54.9365 41.5453C55.5458 42.6015 54.9094 43.5088 53.7448 43.2245C52.3229 42.8588 50.8604 42.2765 49.6552 41.4505C43.7781 37.4422 37.9823 33.312 32.1594 29.2224C31.5094 28.762 30.8594 28.3015 29.9115 27.6109C29.7083 30.6849 29.5458 33.4474 29.3292 36.2099C28.6792 44.4297 28.0292 52.6495 27.3521 60.8693C27.2708 61.7765 27.0948 62.6974 26.824 63.564C26.4583 64.7557 25.6458 65.5411 24.3323 65.4463C23.1 65.3515 22.3823 64.5255 22.1656 63.3609C21.9625 62.2505 21.8542 61.113 21.8677 59.989C21.949 52.6495 22.0708 45.3234 22.1792 37.9838C22.1927 37.4422 22.1792 36.914 22.1792 35.9797C21.5563 36.5755 21.1229 36.9682 20.7031 37.388C16.0177 42.0734 11.3323 46.7724 6.63334 51.4578C6.10522 51.9859 5.50939 52.514 4.8323 52.812C4.37189 53.0151 3.55939 53.0015 3.2073 52.7172C2.85522 52.4328 2.77397 51.6338 2.77397 51.1599C2.78751 49.6703 3.58647 49.0068 4.29064 48.1536C8.43439 43.1297 12.6458 38.1463 16.8844 33.1901C18.4146 31.4026 20.0802 29.737 22.0438 27.6515C18.374 28.0713 15.1917 28.4776 12.0094 28.7755C8.94897 29.0599 5.88855 29.2359 2.81459 29.4526C2.48959 29.4797 2.15105 29.4255 1.85313 29.3849C0.295843 29.1953 1.17605 27.5432 1.62293 27.4349C4.69689 26.6765 7.79793 25.9453 10.9125 25.3765C14.6094 24.7401 22.775 23.4807 23.6146 23.1963Z" fill="black"/>
</svg>
