<svg width="80" height="74" viewBox="0 0 80 74" fill="none" xmlns="http://www.w3.org/2000/svg">
<g clip-path="url(#clip0_4_715)">
<path d="M32 68C26.0985 68 20.3119 66.368 15.28 63.2845C10.2482 60.2009 6.16702 55.786 3.48779 50.5277C0.808558 45.2694 -0.364381 39.3726 0.098643 33.4893C0.561671 27.606 2.64263 21.9653 6.11145 17.1909C9.58028 12.4164 14.3018 8.69427 19.7541 6.43585C25.2064 4.17744 31.177 3.47077 37.0059 4.39397C42.8348 5.31717 48.2948 7.83428 52.7823 11.667C57.2699 15.4997 60.6101 20.4988 62.4338 26.1115L59.3904 27.1003C57.7491 22.0489 54.7429 17.5498 50.7041 14.1003C46.6653 10.6509 41.7513 8.38546 36.5053 7.55457C31.2593 6.72369 25.8858 7.3597 20.9787 9.39227C16.0717 11.4248 11.8222 14.7748 8.70031 19.0718C5.57837 23.3688 3.7055 28.4454 3.28878 33.7404C2.87205 39.0354 3.9277 44.3425 6.33901 49.0749C8.75032 53.8074 12.4234 57.7809 16.952 60.556C21.4807 63.3312 26.6886 64.8 32 64.8L32 68Z" fill="black"/>
<path d="M44.17 42.16C43.7033 42.4773 43.1153 42.7247 42.406 42.902C41.706 43.0793 40.9593 43.168 40.166 43.168C39.1767 43.168 38.3367 43.0467 37.646 42.804C36.9553 42.552 36.4327 42.2067 36.078 41.768C35.7233 41.32 35.546 40.8113 35.546 40.242C35.546 39.7193 35.6907 39.2573 35.98 38.856C36.2693 38.4547 36.666 38.156 37.17 37.96C36.7873 37.7547 36.4887 37.4747 36.274 37.12C36.0687 36.7653 35.966 36.3687 35.966 35.93C35.966 35.398 36.1293 34.9127 36.456 34.474C36.7827 34.0353 37.2773 33.6853 37.94 33.424C38.6027 33.1627 39.4147 33.032 40.376 33.032C41.0107 33.032 41.6313 33.0973 42.238 33.228C42.8447 33.3493 43.372 33.5173 43.82 33.732L43.19 35.468C42.3313 35.0667 41.4213 34.866 40.46 34.866C39.732 34.866 39.1813 34.978 38.808 35.202C38.444 35.4167 38.262 35.7107 38.262 36.084C38.262 36.4293 38.3833 36.6953 38.626 36.882C38.878 37.0593 39.256 37.148 39.76 37.148H42.434V38.94H39.62C39.0507 38.94 38.612 39.038 38.304 39.234C37.996 39.43 37.842 39.7147 37.842 40.088C37.842 40.48 38.038 40.788 38.43 41.012C38.8313 41.2267 39.4427 41.334 40.264 41.334C40.8427 41.334 41.4213 41.2593 42 41.11C42.5787 40.9513 43.0687 40.732 43.47 40.452L44.17 42.16ZM50.1339 33.032C51.3006 33.032 52.2106 33.4007 52.8639 34.138C53.5172 34.866 53.8439 35.9067 53.8439 37.26V43H51.5759V37.33C51.5759 36.546 51.3892 35.958 51.0159 35.566C50.6519 35.1647 50.1432 34.964 49.4899 34.964C48.7992 34.964 48.2439 35.1787 47.8239 35.608C47.4132 36.028 47.2079 36.6533 47.2079 37.484V43H44.9399V33.2H47.1379V34.39C47.4739 33.942 47.8939 33.606 48.3979 33.382C48.9019 33.1487 49.4806 33.032 50.1339 33.032ZM62.1445 37.946H64.2165V43H62.5085V42.412C61.8271 42.916 60.9498 43.168 59.8765 43.168C58.9711 43.168 58.1405 42.972 57.3845 42.58C56.6285 42.188 56.0265 41.6187 55.5785 40.872C55.1305 40.116 54.9065 39.22 54.9065 38.184C54.9065 37.1853 55.1351 36.2987 55.5925 35.524C56.0591 34.74 56.7031 34.1287 57.5245 33.69C58.3458 33.2513 59.2698 33.032 60.2965 33.032C61.1551 33.032 61.9345 33.1767 62.6345 33.466C63.3345 33.7553 63.9225 34.1753 64.3985 34.726L62.9425 36.07C62.2425 35.3327 61.3978 34.964 60.4085 34.964C59.7831 34.964 59.2278 35.0993 58.7425 35.37C58.2571 35.6313 57.8791 36.0047 57.6085 36.49C57.3378 36.9753 57.2025 37.5353 57.2025 38.17C57.2025 38.8327 57.3331 39.3973 57.5945 39.864C57.8651 40.3307 58.2245 40.6853 58.6725 40.928C59.1205 41.1613 59.6105 41.278 60.1425 41.278C60.9358 41.278 61.6031 41.054 62.1445 40.606V37.946Z" fill="#CD4631"/>
<path d="M40.726 47.964C39.942 47.964 39.3493 48.1367 38.948 48.482C38.5467 48.818 38.346 49.3267 38.346 50.008V50.61H42.378V52.43H38.346V56H36.078V50.022C36.078 48.762 36.47 47.782 37.254 47.082C38.0473 46.382 39.1533 46.032 40.572 46.032C41.132 46.032 41.6593 46.0927 42.154 46.214C42.6487 46.326 43.078 46.494 43.442 46.718L42.742 48.51C42.182 48.146 41.51 47.964 40.726 47.964ZM48.7972 56.168C47.7799 56.168 46.8606 55.9487 46.0392 55.51C45.2272 55.0713 44.5879 54.4693 44.1212 53.704C43.6639 52.9293 43.4352 52.0613 43.4352 51.1C43.4352 50.1387 43.6639 49.2753 44.1212 48.51C44.5879 47.7353 45.2272 47.1287 46.0392 46.69C46.8606 46.2513 47.7799 46.032 48.7972 46.032C49.8146 46.032 50.7292 46.2513 51.5412 46.69C52.3532 47.1287 52.9926 47.7353 53.4592 48.51C53.9259 49.2753 54.1592 50.1387 54.1592 51.1C54.1592 52.0613 53.9259 52.9293 53.4592 53.704C52.9926 54.4693 52.3532 55.0713 51.5412 55.51C50.7292 55.9487 49.8146 56.168 48.7972 56.168ZM48.7972 54.236C49.3759 54.236 49.8986 54.1053 50.3652 53.844C50.8319 53.5733 51.1959 53.2 51.4572 52.724C51.7279 52.248 51.8632 51.7067 51.8632 51.1C51.8632 50.4933 51.7279 49.952 51.4572 49.476C51.1959 49 50.8319 48.6313 50.3652 48.37C49.8986 48.0993 49.3759 47.964 48.7972 47.964C48.2186 47.964 47.6959 48.0993 47.2292 48.37C46.7626 48.6313 46.3939 49 46.1232 49.476C45.8619 49.952 45.7312 50.4933 45.7312 51.1C45.7312 51.7067 45.8619 52.248 46.1232 52.724C46.3939 53.2 46.7626 53.5733 47.2292 53.844C47.6959 54.1053 48.2186 54.236 48.7972 54.236ZM61.5477 56L59.6577 53.27H59.5457H57.5717V56H55.3037V46.2H59.5457C60.4137 46.2 61.1651 46.3447 61.7997 46.634C62.4437 46.9233 62.9384 47.334 63.2837 47.866C63.6291 48.398 63.8017 49.028 63.8017 49.756C63.8017 50.484 63.6244 51.114 63.2697 51.646C62.9244 52.1687 62.4297 52.57 61.7857 52.85L63.9837 56H61.5477ZM61.5057 49.756C61.5057 49.2053 61.3284 48.7853 60.9737 48.496C60.6191 48.1973 60.1011 48.048 59.4197 48.048H57.5717V51.464H59.4197C60.1011 51.464 60.6191 51.3147 60.9737 51.016C61.3284 50.7173 61.5057 50.2973 61.5057 49.756ZM44.912 59.2V65.934C44.912 67.4087 44.5013 68.538 43.68 69.322C42.8587 70.1153 41.7247 70.512 40.278 70.512C39.4473 70.512 38.6867 70.3953 37.996 70.162C37.3053 69.938 36.7173 69.616 36.232 69.196L37.114 67.516C38.0007 68.2347 39.0367 68.594 40.222 68.594C41.0433 68.594 41.65 68.3887 42.042 67.978C42.4433 67.558 42.644 66.914 42.644 66.046V65.444C41.9907 66.2467 41.0667 66.648 39.872 66.648C38.6307 66.648 37.674 66.298 37.002 65.598C36.3393 64.8887 36.008 63.8713 36.008 62.546V59.2H38.276V62.406C38.276 63.1713 38.458 63.75 38.822 64.142C39.186 64.534 39.6993 64.73 40.362 64.73C41.062 64.73 41.6173 64.5247 42.028 64.114C42.4387 63.7033 42.644 63.0827 42.644 62.252V59.2H44.912ZM51.3402 69.168C50.3229 69.168 49.4035 68.9487 48.5822 68.51C47.7702 68.0713 47.1309 67.4693 46.6642 66.704C46.2069 65.9293 45.9782 65.0613 45.9782 64.1C45.9782 63.1387 46.2069 62.2753 46.6642 61.51C47.1309 60.7353 47.7702 60.1287 48.5822 59.69C49.4035 59.2513 50.3229 59.032 51.3402 59.032C52.3575 59.032 53.2722 59.2513 54.0842 59.69C54.8962 60.1287 55.5355 60.7353 56.0022 61.51C56.4689 62.2753 56.7022 63.1387 56.7022 64.1C56.7022 65.0613 56.4689 65.9293 56.0022 66.704C55.5355 67.4693 54.8962 68.0713 54.0842 68.51C53.2722 68.9487 52.3575 69.168 51.3402 69.168ZM51.3402 67.236C51.9189 67.236 52.4415 67.1053 52.9082 66.844C53.3749 66.5733 53.7389 66.2 54.0002 65.724C54.2709 65.248 54.4062 64.7067 54.4062 64.1C54.4062 63.4933 54.2709 62.952 54.0002 62.476C53.7389 62 53.3749 61.6313 52.9082 61.37C52.4415 61.0993 51.9189 60.964 51.3402 60.964C50.7615 60.964 50.2389 61.0993 49.7722 61.37C49.3055 61.6313 48.9369 62 48.6662 62.476C48.4049 62.952 48.2742 63.4933 48.2742 64.1C48.2742 64.7067 48.4049 65.248 48.6662 65.724C48.9369 66.2 49.3055 66.5733 49.7722 66.844C50.2389 67.1053 50.7615 67.236 51.3402 67.236ZM66.6107 59.2V69H64.4127V67.81C63.7407 68.7153 62.7514 69.168 61.4447 69.168C60.2874 69.168 59.382 68.804 58.7287 68.076C58.0847 67.3387 57.7627 66.2933 57.7627 64.94V59.2H60.0307V64.87C60.0307 65.654 60.2127 66.2467 60.5767 66.648C60.95 67.04 61.454 67.236 62.0887 67.236C62.77 67.236 63.316 67.026 63.7267 66.606C64.1374 66.1767 64.3427 65.5467 64.3427 64.716V59.2H66.6107Z" fill="black"/>
</g>
<defs>
<clipPath id="clip0_4_715">
<rect width="79.0824" height="74" fill="white"/>
</clipPath>
</defs>
</svg>
