<svg width="583" height="171" viewBox="0 0 583 171" fill="none" xmlns="http://www.w3.org/2000/svg">
<path d="M230.155 24.616C224.395 21.288 218.219 19.144 211.627 18.184V73H196.075V18.184C189.483 19.144 183.275 21.288 177.451 24.616L172.171 13C176.779 10.248 181.771 8.168 187.147 6.75999C192.523 5.352 198.059 4.648 203.755 4.648C209.515 4.648 215.083 5.352 220.459 6.75999C225.899 8.168 230.891 10.248 235.435 13L230.155 24.616ZM278.248 46.024C284.328 48.072 287.368 52.168 287.368 58.312C287.368 62.984 285.608 66.6 282.088 69.16C278.568 71.72 273.32 73 266.344 73H238.792V21.352H265.192C271.656 21.352 276.712 22.536 280.36 24.904C284.008 27.208 285.832 30.472 285.832 34.696C285.832 37.256 285.16 39.528 283.816 41.512C282.536 43.432 280.68 44.936 278.248 46.024ZM252.52 42.568H263.848C269.096 42.568 271.72 40.712 271.72 37C271.72 33.352 269.096 31.528 263.848 31.528H252.52V42.568ZM265.096 62.824C270.6 62.824 273.352 60.936 273.352 57.16C273.352 55.176 272.712 53.736 271.432 52.84C270.152 51.88 268.136 51.4 265.384 51.4H252.52V62.824H265.096ZM318.863 73.768C313.423 73.768 308.527 72.648 304.175 70.408C299.887 68.104 296.527 64.936 294.095 60.904C291.663 56.872 290.447 52.296 290.447 47.176C290.447 42.056 291.663 37.48 294.095 33.448C296.527 29.416 299.887 26.28 304.175 24.04C308.527 21.736 313.423 20.584 318.863 20.584C324.303 20.584 329.167 21.736 333.455 24.04C337.743 26.28 341.103 29.416 343.535 33.448C345.967 37.48 347.183 42.056 347.183 47.176C347.183 52.296 345.967 56.872 343.535 60.904C341.103 64.936 337.743 68.104 333.455 70.408C329.167 72.648 324.303 73.768 318.863 73.768ZM318.863 61.48C322.703 61.48 325.839 60.2 328.271 57.64C330.767 55.016 332.015 51.528 332.015 47.176C332.015 42.824 330.767 39.368 328.271 36.808C325.839 34.184 322.703 32.872 318.863 32.872C315.023 32.872 311.855 34.184 309.359 36.808C306.863 39.368 305.615 42.824 305.615 47.176C305.615 51.528 306.863 55.016 309.359 57.64C311.855 60.2 315.023 61.48 318.863 61.48ZM404.619 21.352V73H390.315V66.952C388.395 69.192 386.027 70.888 383.211 72.04C380.459 73.192 377.515 73.768 374.379 73.768C367.595 73.768 362.187 71.816 358.155 67.912C354.187 64.008 352.203 58.216 352.203 50.536V21.352H367.179V48.328C367.179 56.648 370.667 60.808 377.643 60.808C381.291 60.808 384.203 59.656 386.379 57.352C388.555 54.984 389.643 51.496 389.643 46.888V21.352H404.619ZM378.027 15.784C366.763 15.784 361.099 10.824 361.035 0.903996H370.827C370.891 3.144 371.499 4.904 372.651 6.184C373.867 7.4 375.627 8.008 377.931 8.008C380.235 8.008 381.995 7.4 383.211 6.184C384.491 4.904 385.131 3.144 385.131 0.903996H395.115C395.051 10.824 389.355 15.784 378.027 15.784Z" fill="black"/>
<path d="M31.4724 100.648C37.6804 100.648 43.0884 101.864 47.6964 104.296C52.3044 106.728 55.8884 110.312 58.4484 115.048C61.0084 119.784 62.2884 125.512 62.2884 132.232V169H46.7364V152.872H16.0164V169H0.656374V132.232C0.656374 125.512 1.93637 119.784 4.49637 115.048C7.05637 110.312 10.6404 106.728 15.2484 104.296C19.8564 101.864 25.2644 100.648 31.4724 100.648ZM46.7364 140.392V130.792C46.7364 125.224 45.3604 121.032 42.6084 118.216C39.8564 115.336 36.1124 113.896 31.3764 113.896C26.5764 113.896 22.8004 115.336 20.0484 118.216C17.3604 121.032 16.0164 125.224 16.0164 130.792V140.392H46.7364ZM73.0306 117.352H87.9106V137.512H110.375V117.352H125.351V169H110.375V149.704H87.9106V169H73.0306V117.352ZM177.223 129.64H150.727V169H135.847V117.352H177.223V129.64ZM227.105 117.352V169H212.129V129.64H195.809L195.329 138.76C195.073 145.544 194.433 151.176 193.409 155.656C192.385 160.136 190.721 163.656 188.417 166.216C186.113 168.776 182.913 170.056 178.817 170.056C176.641 170.056 174.049 169.672 171.041 168.904L171.809 156.616C172.833 156.744 173.569 156.808 174.017 156.808C176.257 156.808 177.921 156.008 179.009 154.408C180.161 152.744 180.929 150.664 181.313 148.168C181.697 145.608 181.985 142.248 182.177 138.088L182.945 117.352H227.105ZM288.643 117.352V169H274.339V162.952C272.419 165.192 270.051 166.888 267.235 168.04C264.483 169.192 261.539 169.768 258.403 169.768C251.619 169.768 246.211 167.816 242.179 163.912C238.211 160.008 236.227 154.216 236.227 146.536V117.352H251.203V144.328C251.203 152.648 254.691 156.808 261.667 156.808C265.315 156.808 268.227 155.656 270.403 153.352C272.579 150.984 273.667 147.496 273.667 142.888V117.352H288.643ZM350.053 117.352V169H335.749V162.952C333.829 165.192 331.461 166.888 328.645 168.04C325.893 169.192 322.949 169.768 319.813 169.768C313.029 169.768 307.621 167.816 303.589 163.912C299.621 160.008 297.637 154.216 297.637 146.536V117.352H312.613V144.328C312.613 152.648 316.101 156.808 323.077 156.808C326.725 156.808 329.637 155.656 331.813 153.352C333.989 150.984 335.077 147.496 335.077 142.888V117.352H350.053ZM323.461 111.784C312.197 111.784 306.533 106.824 306.469 96.904H316.261C316.325 99.144 316.933 100.904 318.085 102.184C319.301 103.4 321.061 104.008 323.365 104.008C325.669 104.008 327.429 103.4 328.645 102.184C329.925 100.904 330.565 99.144 330.565 96.904H340.549C340.485 106.824 334.789 111.784 323.461 111.784ZM385.063 169.768C379.559 169.768 374.599 168.648 370.183 166.408C365.831 164.104 362.407 160.936 359.911 156.904C357.479 152.872 356.263 148.296 356.263 143.176C356.263 138.056 357.479 133.48 359.911 129.448C362.407 125.416 365.831 122.28 370.183 120.04C374.599 117.736 379.559 116.584 385.063 116.584C390.503 116.584 395.239 117.736 399.271 120.04C403.367 122.28 406.343 125.512 408.199 129.736L396.583 135.976C393.895 131.24 390.023 128.872 384.967 128.872C381.063 128.872 377.831 130.152 375.271 132.712C372.711 135.272 371.431 138.76 371.431 143.176C371.431 147.592 372.711 151.08 375.271 153.64C377.831 156.2 381.063 157.48 384.967 157.48C390.087 157.48 393.959 155.112 396.583 150.376L408.199 156.712C406.343 160.808 403.367 164.008 399.271 166.312C395.239 168.616 390.503 169.768 385.063 169.768ZM436.211 149.416H428.435V169H413.459V117.352H428.435V137.416H436.499L450.515 117.352H466.451L448.403 142.12L467.699 169H450.035L436.211 149.416ZM521.252 117.352V169H506.948V162.952C505.028 165.192 502.66 166.888 499.844 168.04C497.092 169.192 494.148 169.768 491.012 169.768C484.228 169.768 478.82 167.816 474.788 163.912C470.82 160.008 468.836 154.216 468.836 146.536V117.352H483.812V144.328C483.812 152.648 487.3 156.808 494.276 156.808C497.924 156.808 500.836 155.656 503.012 153.352C505.188 150.984 506.276 147.496 506.276 142.888V117.352H521.252ZM582.662 117.352V169H568.358V162.952C566.438 165.192 564.07 166.888 561.254 168.04C558.502 169.192 555.558 169.768 552.422 169.768C545.638 169.768 540.23 167.816 536.198 163.912C532.23 160.008 530.246 154.216 530.246 146.536V117.352H545.222V144.328C545.222 152.648 548.71 156.808 555.686 156.808C559.334 156.808 562.246 155.656 564.422 153.352C566.598 150.984 567.686 147.496 567.686 142.888V117.352H582.662ZM556.07 111.784C544.806 111.784 539.142 106.824 539.078 96.904H548.87C548.934 99.144 549.542 100.904 550.694 102.184C551.91 103.4 553.67 104.008 555.974 104.008C558.278 104.008 560.038 103.4 561.254 102.184C562.534 100.904 563.174 99.144 563.174 96.904H573.158C573.094 106.824 567.398 111.784 556.07 111.784Z" fill="#CD4631"/>
</svg>
